<svg enable-background="new 0 0 71.75 70.25" height="311.804782" viewBox="0 0 71.75 70.25" width="320.71349" xmlns="http://www.w3.org/2000/svg" xmlns:xlink="http://www.w3.org/1999/xlink"><clipPath id="a"><path d="m1.25 2.378h69.359v65.491h-69.359z"/></clipPath><clipPath id="b"><path d="m1.25 2.378h69.359v65.491h-69.359z"/></clipPath><g fill="#231f20"><path d="m63.42 25.623c-.031.021-.014.01 0 0"/><path d="m59.267 11.964c.146.666.051 1.006-.048 1.598-.1.592-.12.825-.126 1.266-.011.741.215 1.435.235 1.525h2.214c0-.14.017-.344.02-.483.008-.494-.03-1.311-.068-1.728-.072-.774-.327-1.547-.512-2.041-.29-.772-1.158-1.646-1.643-2.051-.515-.429-.601-.429-.798-.555-.121-.077-.28-.108-.242.048.149.614.697 1.184.968 2.421"/><path d="m62.689 23.654c-.032-.089.025-.097-.016-.178-.041-.08-.137-.218-.162-.281-.042-.108-.807-1.599-.823-1.599 0-.048-1.212-2.725-1.211-3.146.204-.07.535-.332.666-.607.337-.707.355-1.073.399-1.491l-2.214.001c.012.055.532 1.235.762 1.371v.194c-.016 0-.025.054-.042.054-.055.056-.15-.096-.103-.006-.028-.054-.503-.709-1.086-1.614-.67-1.037-1.42-2.258-1.523-2.615-.196-.414-.227-.686-.199-.756.816-.481.474-3.504.484-3.051.01-2.81-1.452-4.856-1.5-4.889-.165-.233-.437-.695-.727-.775 0 .032-.032.098-.048.098.719 1.575-.046 4.809-.145 5.47-.071 1.56 1.417 3.564 1.452 3.728-.368-.077-.597-.354-.823-.58-.178-.161-.355-.323-.532-.484-.312-.643-1.277-3.566-1.509-3.933-.641-1.014-1.746-1.891-3.338-2.508-.804-.312-2.709-1.053-3.141-1.548-.065-.041-.065 0-.097 0-.041.056.007.008-.049.049.081.227.401 1.152 1.985 3.001.912 1.064 1.15 1.807 4.406 3.632.329.117.92.513.968.92-.108-.017-1.8-1.243-3.34-1.695s-3.713-2.866-3.873-3.052c.224-1.908-2.469-2.694-2.469-2.711-.145-.017-4.355-1.532-7.116-.629-.039.108.02.119.048.193.672.069 1.968.256 2.393.688 2.264 2.756 5.45 2.834 5.45 2.846.367.105.916-.093 1.21.096.064.081 3.486 2.744 3.486 2.761-.293-.003-.738.006-.92-.098-.178-.192-.757-1.318-3.873-1.549 0 .016-2.13-.081-2.421-.097-2.077-.031-3.001-1.308-3.049-1.308-.042.057.006.01-.049.05.025.19.222.41.242.436.235.288 1.112 1.945 3.776 2.953.015.006 1.48.624 2.76.581 1.902.005 2.058-.685 2.565-.532.291.032 1.843.048 2.179.146 2.102.713 3.808 2.227 3.872 2.274-.016.032-.032.065-.048.097-.08.001-2.41-1.228-3.663-1.176-3.916.161-4.05.03-4.179.015-.156-.068-.228-.198-.436-.242.22.717 2.954 1.736 3.97 2.082 0 .016 1.972.928 2.856.435.145-.048 1.694-.597 1.694-.581.183-.118 1.016-.323 1.549.533.007 0 .551.803 1.15 1.726v.001c.727 1.122 1.535 2.422 1.561 2.679-.171-.02-.19-.066-.339-.097.014-.475-.286-.692-.662-.958-.385-.28-1.758-1.026-3.192-1.625h-.001c-1.393-.578-2.843-1.019-3.503-.758.134.224.607.325.972.512.174.089.351.199.424.246v.001c.053.037.319.192.879.693.589.527.4.369.738.712.338.342.573.652.923 1.009.569.579 1.25.803 1.836.945.585.142.749.13.934.096.117-.021.311-.096.362-.146.121-.121.252-.091.484-.097.351-.049.871.789.871.822 0 0 .497.924.63 1.258.133.336.562 1.188.656 1.462.094.273.65 1.49.65 1.49h.617c-.075-.163-.406-.855-.438-.944"/><path d="m47.353 60.706c0 .004-.001.008-.001.012-.001.016-.001.017.001-.012"/><path d="m31.578 58.284c.294.056.773.183 1.009.247.116.032.193.043.297.003.054-.021.143-.121 0-.242-.599-.507-1.567-.823-1.753-.889-.272-.097-1.067-.246-1.421-.289-.603-.073-1.425-.041-1.621-.032-.472.021-1.503.247-1.934.629s-.726.896-.726.896h4.357c0-.009.657-.257.89-.302.182-.035.608-.077.902-.021"/><path d="m12.455 50.595c-.013.017-.01.012.004-.002.003-.006.003-.007-.004.002"/><path d="m20.995 53.454c-.039-.033-.593-.646-.746-.778s-.491-.463-.823-.677c-.332-.215-1.426-.736-1.874-1.058-.515-.37-.933-.975-.981-1.095l-.322.001c.058.281.289 1.399.176.845-.085-.418.209.829.871 2.178.143.291.323.581.339.581v.003z"/><path d="m68.562 36.314c-.101-.569-.317-1.059-.29-1.938s.199-1.343.286-1.535l-1.061.001c-.589.643-1.018 1.815-1.21 2.31-.216.555-.425 1.505-.484 2.13-.059.624-.226 2.614-.242 2.614 0 .08-.07.835-.145 1.19-.134.627-.525 1.228-.581 1.423-.158.556-.097.291-.145.437-.13.112-.825.797-1.017.92-.192.122-.285.183-.42.215.113-.403.403-1.626.419-1.739-.016-.048.096-.145.096-.192.016 0 .244-1.023.244-1.063h-.617c-.02.054-.255 1.133-.255 1.23-.126.416-.5 1.968-.532 2.13-.047.129-.13.204-.145.387-.049.016-.097.032-.146.048-.022-.21-.239-.464-.145-.726.016 0 .426-.9.581-1.355.211-.619.242-1.468.257-1.714h-.743-.992c-.067.24-.276.53-.361 1.133-.078.55-.124 1.828.435 2.323.133.118.387.178.436.194.041.101.242.822.242.92.016 0 .002.212.018.212-.012.286.01.266.006.371-.008.192-.091 1.083-.072 1.256.019.174-.012.367-.049.533s-.17.398-.196.528c-.04.197-.225.446-.279.559-.085.175-.392.592-.396.606.068-.256.147-.549.181-.771.048-.314.022-.877 0-1.127-.024-.274-.113-.717-.145-.845-.076-.305-.185-.601-.23-.74-.04-.111-.148-.372-.261-.565-.041-.068-.169-.29-.221-.382-.056-.099-.172-.248-.249-.46-.134-.374-.112-.591-.112-.693s.056-.712.02-.758c-.074-.095-.122-.047-.171.023-.472.762-.695 1.458-.757 1.689-.061.233-.18.884-.207 1.146-.019.182-.071.517-.082.653-.011.132-.065.634.01 1.202.088.661.253 1.352.423 1.738l.006.013c.033.063.059.118.106.194-.073-.041-1.186.083-1.7.288-.187.075-.826.349-1.162.604-.165.125-.432.309-.581.436-.149.128-1.043.992-1.246 1.354-.068.122-.333.591-.385.731h2.306c.107-.345.194-.624.226-.699.225-.526.649-1.122.988-1.471.42-.433.946-.653 1.098-.713.286-.114.492-.307.547-.364.092.208.27.455.339.533v1.162c-.371.387-.742.773-1.113 1.161-.113-.032-.112-.124-.339-.097.028-.146.073-.277-.051-.402-.046-.047-.111-.065-.143-.081-.016-.05-.033-.121-.109-.18s-.344-.054-.472.082c-.276.077-.221.293-.242.339-.021.047-.098.042-.151.056-.053.013-.163.075-.188.138-.018.047 0 .097 0 .146-.016 0-.104.03-.193.097-.104.077-.149.22-.163.294h-.034v.001h.034c-.001.006-.002.013-.003.018-.009.066.01.249.115.318-.115.273-.084.629.293.773-.064.232-.307.295-.46.424-.153.13-.479.47-.623.568-.143.1-1.03.827-1.241.943-.211.117-.562.356-.581.291s.032-.629.048-.629c.097-.284.4-.089.701-.165.165-.041.354-.107.558-.222.204-.116.393-.383.533-.581.143-.205.423-1.091.626-1.739h-2.306c-.005.015-.216.513-.291.771-.06.205-.156.87-.172.87-.016.258-.296 1.083-.312 1.31-.016 0-.061.428-.063.58-.145.048-.519.109-.629.14-.11.029-.542.123-.711.153 0 .016-.958.177-1.322.288.015-.006-.904.258-.92.29-.032 0-.556.219-.665.274s-.267.16-.545.209c-.024.004-.038.009-.049-.048-.022-.113-.002-.258.097-.484.099-.227.57.01 1.065-.048.496-.059.978-.441 1.162-.582.184-.139.702-.656.92-.968.218-.31.587-.907.724-1.203.096-.209.256-.58.41-.781.346-.448.943-.754.947-.771 0-.002.137-.09.158-.121.021-.032.043-.05.036-.077-.007-.026-.007-.029-.048-.048-.086-.04-.48.063-.626.098-.267.064-.406.105-.536.147 0 0 .013.001.034.001h-.034c-.108.05-.833.296-1.259.528s-1.176.773-1.355.92c-.18.146-.731.595-1.044.933-.285.306-.645.765-.796 1.004-.151.238-.38.631-.436 1.017-.055.385-.064.63-.048.63v.121s0 .081 0 .12c-.016 0-.124.212-.339.34-.028.016-.42.306-.484.387-.032 0-.576.813-.748.684-.029-.021-.249-.017-.365.042-.096.048-.135.207-.198.229-.378.126-.728.253-.728.254-.072.037-.136.063-.209.118-.091.067-.336.207-.323.216-.236-.161-.48-.144-.63 0-.016 0-.051.016-.048 0 .021-.12-.016-.288-.091-.33 0-.001 0-.001 0-.002.242-.081.586-.182.823-.29.236-.109.674-.542.774-.626.099-.085.367-.36.49-.467.145-.129.264-.243.375-.36s.229-.257.293-.313c.082-.073.258-.292.396-.507.087-.137.276-.535.367-.772.104-.27.176-.651.209-.78s.091-.439 0-.629c-.054-.114-.117-.168-.193-.097-.077.07-.176.272-.314.457-.138.184-.421.635-.881.896-.288.163-.528.283-.79.438-.263.154-.702.434-.779.479-.076.046-.666.467-.729.514v.001c-.03.04-.555.396-.679.611-.124.214-.192.321-.215.489-.039.289.091.438-.038.597-.166.207-.19.328-.194.356h-.006s.024.142-.037.18c-.087.056-.046.291-.084.291-.18 0-.375.202-.391.25-.143.03-.237.188-.388.194-.032.002-.064 0-.096 0 .031-.055.064-.053.096-.097.033-.044.036-.049.049-.098.012-.048 0-.063 0-.096.097-.065.226-.097.29-.194.049-.074.053-.168.019-.312-.016 0-.094-.107-.105-.119h-.001c-.088-.088-.182-.095-.198-.095.016-.064-.005-.132 0-.193.006-.063-.017-.142-.048-.194-.031-.053-.167-.157-.266-.188s-.13 0-.17-.005c-.039-.005-.097-.015-.097-.098 0-.065-.032-.129-.048-.192-.031-.042-.082-.082-.145-.098-.064-.015-.227.002-.291.049-.063.047-.064.097-.097.146-.155-.093-.489-.13-.58-.097-.092.032-.25.14-.291.242-.041.101-.032.258-.048.387-.192.039-.253.118-.388.193-.096-.08-.272-.294-.387-.388-.146-.119-.91-.656-1.206-.808-.547-.282-1.902-.607-2.559-.688-.598-.071-1.877-.006-2.457.1-.607.109-1.329.475-1.427.524-.098.05-.063.24.097.242s.758.006 1.065.097c.178.017 1.014.191 1.404.388.324.163.968.468.968.483.032 0 .377.157.48.192h-.001c0 .001.003.003.005.005v.002h.003c.073.04.607.247.96.327-.039-.009-.225.05-.532.049-.429-.003-.743-.096-1.211-.097-.613-.032-1.936-.146-1.984-.146 0-.017-.259-.02-.259-.035l-.123-.102s0-.001 0-.002c-.001 0-.002 0-.003 0l-.003-.002h-.074c-.603-.015-1.206-.031-1.808-.047.016-.146.073-.271.048-.436-.025-.166-.226-.339-.242-.339 0-.113.042-.215 0-.339-.041-.124-.077-.166-.193-.193-.118-.027-.187.042-.242.049-.033-.049.009-.101-.114-.183-.123-.081-.309-.119-.483-.054-.086.033-.309.139-.236.237-.161-.216-.378-.179-.378-.195.161-.048.331-.141.485-.203.108-.043.774-.345.774-.353l-4.357.001c-.078.127-.16.348-.194.409-.015.029-.097.032-.097.05-.064.016-.129.031-.193.048 0 .016-.323.145-.339.145.03-.117.051-.105.097-.192.225-.008.479-.214.532-.291.016 0 .048-.112.049-.168 0 .08.078-.034.014-.195-.065-.161-.097-.113-.014-.412.082-.298.014-.409-.196-.458-.209-.048-.176.039-.288.023-.017-.065-.009-.142-.049-.194-.065-.086-.199-.165-.339-.183-.258-.032-.37.063-.515 0-.219-.098-.348-.022-.451.097-.016 0-.111.221-.099.23-.046-.038-.134-.023-.193 0-.143.06-.184.162-.243.194-.05-.113-.092-.226-.193-.29.029-.136.164-.651.048-1.065-.042-.152-.383-.938-.484-1.113-.101-.176-.543-.903-.677-1.065-.135-.162-.536-.66-.61-.723h-3.36c.001.034.352.579.581.917.229.337.604.723.785.918.182.194 1.176 1.095 1.538 1.357.363.262 1.501.887 1.598.92.029.107.258.419.291.435.056.089-.001.11.096.194 0 .016-.29-.048-.435-.098-.033-.048-.012-.088-.097-.145-.086-.057-.242-.146-.242-.146s-.097 0-.145 0c0-.016-.985-.581-1.017-.581 0 0-.685-.344-.872-.532-.186-.188-.312-.326-.484-.484-.171-.157-.581-.516-.823-.774 0-.032-.229-.051-.347-.136-.102-.074-.464-.543-.558-.639-.095-.097-.478-.575-.494-.575-.065-.08-.471-.584-.487-.632h-.915v.001c.164.218.399.536.428.575-.03-.042.441.511.631.728.193.22.724.811.869.971.032 0 .29.241.419.354 0 .016.115.111.115.127-.112 0-.225 0-.339 0 0-.016-.533-.781-.725-.968-.193-.188-.644-.576-.693-.609-.113-.129-.778-.637-1.202-.867-.165-.089-.387-.201-.604-.312l-4.857.006c.047.063.971.983 1.25 1.214.407.336 1.026.743 1.361.912.336.169 1.399.68 2.324.919.925.241 1.485.291 1.597.291.159.049 1.082.11 1.308.049 0-.017.873-.081.968 0h.242c.016.032.26.294.092.22-.085-.036-.302-.004-.354.017-.322.129-.271.425-.271.44-.097 0-.193 0-.29 0 0 .017-.166.005-.261.203-.121.258-.066.477.178.646.059.041.112.096.177.128 0 .041.051.074.051.114-.035.353.315.258.4.386.032.048.152.256.274.322.221.118.409-.021.531-.146.032-.016.135-.2.151-.249.07 0 .235.039.387-.048-.014.008.154-.122.185-.266.019-.057.038-.113.057-.171-.016 0 .025-.152-.048-.241-.023-.028.064-.032.096-.048.073-.095.09-.175.097-.34.231.054.363.187.533.29.169.104.41.122.532.242.123.121.089.178.134.268l2.136.001c.035-.052.089-.093.151-.122.082-.041.169 0 .29 0 .015.058.027.095.045.122h.001c.026.035.065.052.148.07-.015.158.016.233-.145.339-.014.01-.4-.004-.484-.145-.065-.108-.054-.196-.006-.265h-2.136c.004.007.008.015.011.022.097 0 .892.104 1.307.242.416.138.743.339.775.339 0 .016.355.193.387.193.016.033 1.052.646 1.114.678-.141.163-.448.173-.678.242-.097 0-.549.049-.678.049 0 .016-.465.009-.629-.146-.032-.048-1.076-.64-1.549-.726s-1.468.082-1.749.119c-.371.048-1.114.063-1.562 0-.564-.081-1.401-.451-1.724-.604-.278-.131-.724-.402-.748-.41-.025-.009-1.559-1.01-1.575-1.041-.033 0-1.292-.84-1.308-.872-.048-.017-.858-.642-.968-.823-.127.006-.164.019-.242.049 0 .08.63 1.081.63 1.113.016 0 1.186 1.403 1.368 1.574.061.058.799.885 1.052 1.137.254.253.825.729 1.017.92h.017c.147.116.868.755 1.526 1.058.662.306 1.205.467 1.695.533.704.097 1.895-.032 2.517-.291.489-.203 1.182-.595 1.355-.726.174-.131.243-.178.243-.193.516-.081 1.033-.162 1.549-.242-.03.107-.008.063-.065.136-.016 0-.183.142-.226.252-.053.136.048.401.048.436.001.033-.052.209-.047.279.011.136.126.271.225.313.104.044.266.1.371.058.033-.014.01.089.078.136.07.048.26.08.39.036 0-.017.081-.025.081-.041.109-.045.083-.146.258-.056-.09-.047.007.041-.048.097 0 .016-.529.24-.625.272h-.008c-.016.006-.991.579-2.4.677-.276.018-1.804-.05-2.344-.177s-.813-.211-1.404-.435c-.076-.03-.282-.083-.335-.01-.052.073-.048.064-.004.154.027.055.665.578 1.065.871.295.215.904.572 1.186.706.282.133 1.014.443 1.235.504.22.063.721.212 1.307.291s.904.082 1.549.048c.645-.033 1.199-.217 1.569-.359.499-.194 1.007-.54 1.287-.753.252-.191.63-.576.823-.823.194-.247.345-.508.427-.692h.004c.119-.226.111-.516.202-.612.04-.043.521-.508.581-.63.074-.152.327-.117.435-.242.129 0 .516-.01.388 0-.105.008-.072.195-.194.097 0 0-.049-.051-.145-.048-.066.002-.227.055-.291.242-.015.046 0 .097 0 .145-.145.032-.274.061-.339.146-.064.085-.059.436.011.468-.015-.007-.091.224-.008.435h-.003c-.001.005-.002.011-.003.016.017 0 .028.123.097.145.215.069.222-.044.284-.028.022.007.097.279.249.319.212.055.438-.034.58-.194.034-.037.033-.097.049-.145.016 0 .18.096.387.048.177-.04.286-.147.294-.159h.004c.029-.049.107-.19.099-.312-.011-.167-.064-.274-.103-.351.007.016.023-.106.039-.106-.005-.231-.101-.252-.136-.28-.133-.105-.194-.004-.194-.048.002-.225-.096-.389-.096-.388-.129-.048 1.064.178 1.161.193.017.032.985.146 1.065.146.293.078.756-.018 1.114.049.151.027 1.388.037 1.549.048.058.004.075.029 0 .098-.145.129-.291.258-.436.387-.015.03-.569.489-.663.563h-.023c-.089.064-.219.103-.431.174-.778.263-1.212.582-1.776.775-.291.1-1.378.371-1.612.423s-2.006.392-2.614.484c-.608.093-1.98.518-2.324.677-.307.144-1.045.523-1.113.678s-.004.193.097.194c.1.001.694-.065.919-.048.559.007 1.076.179 1.453.241.376.063 1.58.188 1.974.218.394.028 1.836-.049 2.625-.266.676-.187 1.401-.572 1.835-.847.406-.255 1.239-.989 1.553-1.429.313-.438.44-.731.646-1.266h.011c.01-.044.121-.33.121-.379.097-.112.323-.339.339-.339.001.103.051.158.048.193-.016 0-.113.194-.145.291-.016 0-.021.146-.013.225h-.01c-.034.071-.092.14-.101.215-.004.026-.094.271.073.479.048.06.114.039.146.055.033.048.057.114.11.152.208.149.341.12.483.059.059-.024.144-.075.211-.135.068-.059.093-.177.114-.179.04-.004.09.045.097.048.263.097.358-.04.388-.194.01-.056.232.059.339 0 .032-.017-.062.453 0 .872.065.446.38 1.11.678 1.438.298.326 1.088.789 1.645.935.392.103 1.137.241 1.679.298.553.06 1.328.153 1.758.187.431.033 1.544.143 1.985.242.442.098 1.007.348 1.404.629.039.027.051.039.054.043.001-.003.008-.004.043.006.041-.055-.007-.008.048-.049-.041-.355-.251-.493-.339-.629-.087-.137-.535-.604-.774-.775-.239-.17-1.324-.71-1.791-.871-.424-.146-1.154-.415-1.792-.629-.637-.215-1.688-.737-2.033-.969-.329-.221-.818-.626-1.016-.822-.198-.197-.369-.366-.41-.403h-.001c-.2-.183-.416-.379-.458-.709.388.032.775.064 1.162.098 0 .016.581.192.63.192.015.032.742.395.771.418 0 0 .002.002.003.002.034.024 1.127.645 1.159.692.064.016.679.425 1.162.726.483.302.95.473 1.404.629.453.158 1.446.374 1.936.437.49.062 1.764.067 2.566-.097.801-.163 1.244-.353 1.646-.484s1.396-.686 1.739-.882c.446-.255 1.304-.999 1.329-1.021h.005c.138-.107.292-.236.383-.322.099-.095.087-.203-.065-.194-.016.001-.243.143-.476.265-.224.118-.606.232-.634.25h-.006c0 .006-.281.063-.584.12-.303.058-.628.081-.853.081-.571 0-1.128-.129-1.353-.161-.2-.028-.25-.034-.258-.038h.001s-.002 0-.002-.001h-.001-.001c-.089-.024-1.591-.261-1.682-.277-.094-.018-1.025-.166-1.219-.189-.193-.022-.419-.049-.435-.049.016-.064.032-.129.048-.193.113 0 .194.039.339 0 .145-.04.177-.153.231-.229.053-.075.091-.07.108-.158.017-.089-.029-.3-.092-.358-.064-.057-.17-.078-.344-.077-.016-.081.006-.137-.048-.242-.054-.106-.239-.117-.223-.165.005-.016.022-.01.028-.065 0-.011 0-.029 0-.049h.005c-.01-.217-.226-.289-.24-.295-.069-.029-.136-.013-.194 0-.016.003 0-.033 0-.049.146-.068.26-.16.436-.194.027.108.072.159.129.23.064.107.244.258.286.308h.008c.925.482 1.565.6 1.992.666.416.065 2.083.127 2.565.097.483-.029 1.182-.099 1.888 0 .707.1 1.71.975 1.792 1.065.081.09.132.084.159.062.034-.025.031-.148.027-.217-.003-.067-.06-.245-.094-.333-.054-.142-.32-.548-.609-.864-.143-.155-.433-.436-.472-.482h-.001c-.077-.077-.789-.648-.99-.773-.217-.134-.625-.364-.684-.413.075.049.317.006.394-.021.191.134.37.124.486.043.027-.019.078-.091.095-.092.082-.004.332.076.484-.097.196-.057.199-.149.242-.193.042-.044-.015-.285-.097-.388-.032-.017-.065-.032-.097-.049-.004-.023-.008-.047-.012-.071-.012-.073.019-.179-.036-.219-.055-.041-.105-.014-.097-.049.028-.12.034-.292 0-.387-.033-.095-.049-.065-.049-.097.266.107.626.153.92.241.114 0 .681.079.823.098.142.018 1.716.003 2.295-.115.58-.118 1.391-.504 1.82-.708.746-.355 1.682-1.281 1.981-1.589.299-.31.655-.838.827-1.122.149-.246.515-.965.627-1.206h.001c.144-.238.241-.453.34-.73.117-.327.223-.957.242-1.113s-.019-.23-.096-.242c-.078-.012-.191.119-.245.205-.053.086-.482.846-.655 1.074-.236.311-.794.729-.918.806v.001c-.348.191-1.25.653-1.91.819-.458.114-1.208.327-1.791.581-.583.253-1.629.787-2.179 1.258-.356.331-.851 1.225-1.162 1.308-.585.155-.903-.146-.92-.146.017-.049.033-.098.049-.146.048-.016.189-.102.29-.194.102-.091.511-.337.775-.531.264-.195.874-.589 1.065-.727.191-.137.582-.636.678-.726.095-.091.282-.222.295-.213.088.065.186.088.256.105.181.049.402-.087.49-.185.091-.125.141-.3.084-.609-.005 0 .246-.1.279-.31.012-.078.003-.115.003-.181.016 0 .11-.065.17-.105h.001c.116-.075.558-.603.599-.598-.009.075-.04.112.05.255.045.07.129.064.193.097-.098.147.081.242.097.242v.003c.071.434.594.305.775.239 0 0 .046-.081.145-.049 0 .017.085.082.165.106.081.024.21-.073.27-.155.022-.028.033-.063.049-.097.103-.014.207-.029.31-.044h.002c.012-.002.344-.195.199-.421-.063-.098.121-.04.167-.31s-.291-.371-.339-.388c-.016-.097-.005-.213-.049-.29-.043-.078-.077-.18-.254-.212-.178-.033-.194.064-.278.018-.004-.002-.044-.179-.145-.241s-.302.029-.388.097c-.085.066-.011.11-.145.145.029-.238.049-.182.194-.435.145-.254.112-.219.242-.194.226 0 .407.039.678 0 .205-.029.719-.123.968-.192.259-.074.887-.349 1.259-.533.371-.185.874-.61.901-.651.006-.009.643-.645.643-.677.097-.081.66-.806.876-1.286.149-.332.678-1.629.678-1.644h-2.823c-.132.176-.664.898-.889 1.318-.225.422-.435.887-.5 1.1-.065.214-.29 1.179-.29 1.188 0 .072-.082.548-.097.555-.337.137-.739.347-.965.186-.08-.033.209-.48.335-.719.003-.006.005-.013.007-.021.047-.138.53-1.236.586-1.33.081-.142.181-.464.18-.479-.006-.109.025-.717.019-.773s.079-.421.08-.783c0-.08 0-.16 0-.24 0-.146.102-1.073.193-1.212.017 0 .178-.162.242-.242.033 0 .307-.093.485-.243.027-.023.452-.339.484-.339.048-.064.952-.79.968-.822.177-.049.222-.042.533-.146s1.218-.588 1.645-.919c.427-.332.899-1.176.913-1.23.126-.388.482-1.469.588-2.498.108-1.056.005-1.714-.097-2.283m-26.722 24.495c.007-.109.092-.043.145 0s.077.064.038.18c-.038.114-.114.085-.183.015-.046-.047 0-.13 0-.195zm-22.839-3.572s.244-.085.28-.011c.059.123.028.209-.049.242-.134.059-.198.022-.242-.048-.053-.086-.09-.091.011-.183zm-.543 1.37v.071c-.016 0-.064.046-.049.049-.104-.015-.136-.071-.144-.12-.006-.035-.001-.066-.001-.073h.194zm-.145-.315c-.408.062-.391-.089-.484-.242-.132-.215.013-.313.096-.339.232-.001.319.009.436.097.077.058.161.187.157.17.065.242-.048.29-.205.314zm.048-.775c-.028-.042-.036-.198.097-.241.132-.042.137-.093.254-.006.116.087.075.172.064.258-.012.087 0 .145-.125.136-.124-.011-.262-.105-.29-.147zm.737 1.524c-.097.096-.177.096-.253.074.016.005-.102-.009-.145-.098-.101-.202.048-.339.048-.339.097-.028.028-.041.097-.048.237-.025.237.072.339.242.034.058-.039.122-.086.169zm.658-.434c-.007.02-.008.03.009.023-.014.006-.248.217-.484 0-.008-.008-.016-.016-.024-.023-.074-.075-.131-.178-.025-.315.027-.04.092-.105.22-.072.035.008.103.088.119.12.065.017.129-.015.194.049.064.063.008.17-.009.218zm.106-.557c-.049.017-.097.032-.146.048 0-.016-.087.01-.087-.007-.096-.016-.161-.032-.203-.09-.031-.114-.102-.136-.086-.248.057-.402.499-.21.57-.042.059.138-.014.248-.048.339zm3.776.193c-.055.042-.21.081-.291.097-.127-.088-.156-.112-.223-.249-.102-.209.115-.377.209-.371.453.032.35.182.305.523zm.339-.435c-.064-.168-.009-.278.096-.339.21-.119.379-.021.484 0 .08.09.08.235-.048.388-.044.051-.479.091-.532-.049zm.568.8c-.003-.079.024-.164.061-.22.176-.104.293-.156.436 0 .095.104.032.193.048.193-.001.01-.002.017-.003.025v.001c-.022.186-.023.21-.191.265-.239.078-.291-.058-.339-.194-.007-.021-.011-.045-.012-.07zm5.289.846c.123-.011.177.043.194.145.02.117-.113.195-.097.194-.071.005-.103-.006-.145-.049-.108-.193.064-.292.048-.29zm-1.307-.049c.149-.081.281.027.339.145s.082.205 0 .243c-.082.037-.348.08-.436-.049-.073-.193-.051-.258.097-.339zm.194 1.017c-.094 0-.192.095-.339 0s-.25-.173-.097-.436c.066-.112.266-.05.387.049.102.081.147.3.049.387zm-3.244-.92c.04-.027.549.146.581.146 0 .017.528.145.839.14l1.428-.494c-.014.044-.096.065-.096.193 0 .129.032.172.056.258-.004-.016-.153.14-.194.242-.035.089-.047.208-.048.339-.492-.01-1.985-.339-2.033-.339-.194-.098-.684-.383-.789-.404.058-.027.182-.075.256-.081zm.097 1.065c-.079.032-.119.067-.143.095-.001.002-.003.004-.005.007-.02.025-.025.043-.035.043-.016 0-.034-.007-.032-.043 0-.002.001-.005.001-.007.001-.008.001-.016.004-.027l.017-.067c.096-.029.161-.049.193-.049 0 .016.015.042 0 .048zm-.774.145c.15-.003.211-.022.315-.044h.026c.034.077.124.088.094.238-.03.152-.109.18-.242.193-.133.014-.264-.024-.29-.146-.026-.119-.017-.178.097-.241zm-.2.363c.086-.002.198.104.086.258s-.312.118-.322.009c.03-.118.15-.264.236-.267zm.151 1.041c-.139.043-.291-.085-.339-.146-.048-.06-.038-.252 0-.339.145-.024.267-.038.339-.145.049 0 .293.029.353.146.061.116-.001.172-.096.332-.096.162-.118.11-.257.152zm.557.162s-.085.118-.218.031c-.055-.034-.043-.12-.04-.15.03-.041.105-.132.194-.096-.045-.018.138.145.064.215zm.46-.113c-.088.043-.292.049-.291-.049.003-.203-.131-.235-.147-.332 0 0 .201-.24.354-.172.29.129.268.462.084.553zm.045-.901c-.13-.013-.126-.151-.287-.261.023-.238.195-.3.408-.334h.033c.046.043.17.045.186.109.062.247-.016.407-.143.467-.097.029-.066.031-.197.019zm.139.316s-.182-.279.203-.142c.143.052.033.223.049.193-.047.088-.123.131-.252-.051zm2.961-.051c-.059.063-.364.268-.434.394-.355-.017-.635-.063-1.039-.016-.405.048-1.063.21-1.43.354.137-.054.117-.178.146-.387.004-.031.27-.155.29-.242.021-.086.001-.201-.048-.242s-.064-.031-.097-.048c0-.21.046-.462.02-.568-.011-.05-.02-.081-.029-.104-.001-.002-.001-.005-.002-.007-.01-.024-.021-.037-.037-.047.147.005.298.023.438.047.013.002.026.005.038.007.225.039.415.088.502.106.146.028.523.114.765.131 0 .016.513.116.545.116 0 .016.342.077.52.077 0 .017.096.049.145.049-.066.23-.204.283-.293.38zm.437-.623c-.167.159-.5-.008-.532-.098-.02-.055-.028-.1-.026-.14 0-.002 0-.005.001-.007.008-.083.067-.144.187-.22.165-.106.324.055.398.22.001.002.002.005.003.007.007.014.013.029.017.043.044.128.011.139-.048.195zm.102-1.108c-.14.08-.236.048-.236.032-.048-.016-.085-.07-.139-.172-.055-.103-.011-.279.079-.313.091-.032.296-.106.388 0 .091.108.048.372-.092.453zm.721.721c-.064.017-.096.053-.193.049-.173-.008-.341-.044-.388-.146-.075-.162-.064-.249 0-.339.068-.095.372-.117.484-.048 0 .016.096.063.145.145.084.137-.048.339-.048.339zm-.048 1.016c.048 0 .143-.041.193.049.051.09-.004.225-.039.237-.14.049-.221-.096-.242-.146-.02-.048.033-.111.088-.14zm-.242 1.162c-.011.011-.022.019-.033.024-.001 0-.002.001-.003.001-.027.014-.055.012-.078 0-.001 0-.002-.001-.003-.001-.012-.007-.022-.015-.028-.024-.027-.036-.077-.076-.05-.113.028-.037.092-.027.092-.027.048 0 .035-.015.103.043.036.032.02.075 0 .097zm.058-.285c-.226 0-.295-.29-.3-.344-.005-.055.005-.103.097-.146.08 0 .144-.025.242 0 .097.026.127.07.193.146.066.074.068.15 0 .241-.068.092-.007.103-.232.103zm.474.576c-.202.052-.238-.002-.29-.098-.022-.039-.02-.103-.001-.168v-.001c.029-.094.095-.189.194-.218.079-.022.16-.021.242.048 0 .048.03.026.049.146.001.008.001.017.002.024v.001c.009.112-.038.225-.196.266zm.194-1.259c-.057-.07-.062-.24 0-.29.067-.095.212-.148.362-.035.092.067.099.092.07.235s-.201.243-.257.241c-.057-.001-.119-.08-.175-.151zm.774.678c-.001.048-.032.145-.048.145-.069.088-.2.2-.369.112-.134-.069-.147-.056-.212-.16-.11-.178.014-.253.145-.339.056-.07.491-.048.484.242zm-.181-.58c-.032-.005.081 0 .084.096.027.051-.064.094-.067.101-.058.005-.119-.026-.119-.041-.054-.042-.035-.177.102-.156zm10.202-1.599c.084-.028.243-.033.288.083.045.117-.055.303-.117.315-.12.025-.286-.097-.316-.156s.061-.213.145-.242zm-1.21-.339c.315.002.439.097.484.194.045.098.011.484-.097.532-.107.05-.369.084-.484-.048-.01-.013-.046-.063-.097-.193-.05-.132-.017-.414.194-.485zm-2.089 1.939.076-.025c.032 0 .059.009.077.071.017.065.128.164.058.268-.069.104-.242.015-.22-.076.016-.064.009-.173.009-.238zm-1.3.046c.041-.031.064-.079.145-.048s.182.23.097.29c-.084.06-.237.102-.29 0-.082-.135-.014-.194.048-.242zm-.071.479c.151-.054.203-.033.322.052.052.038.101.203-.009.245s-.14-.031-.22-.042c-.08-.012-.131.067-.169-.034-.025-.069.012-.198.076-.221zm.599.974c-.034.033-.156.155-.286.192-.169.051-.271-.015-.313-.108-.068-.153-.204-.142-.22-.254-.016-.114.087-.296.146-.314.027-.009.05-.017.072-.022.083-.023.167-.02.46.07.016.004.16.105.194.194.028.07-.042.213-.053.242zm.489-1.066c-.115.092-.191.075-.388-.048-.121-.076-.174-.012-.209-.182-.035-.169.135-.372.258-.399.123-.026.3-.04.36.062.059.101.143.498-.021.567zm.511.718c-.055.056-.083.104-.172.058-.141-.074-.242-.091-.291-.193-.014-.029-.019-.069-.018-.111 0-.004 0-.007 0-.01.005-.101.047-.215.115-.267.065-.016.121-.061.194-.048.072.011.113.048.145.097.016.025.06.117.08.218.001.003.001.006.002.011.016.09.012.188-.055.245zm1.377-1.541c-.475.083-.523.05-.636.033-.113-.016-.422-.172-.477-.227.153-.069.347-.154.435-.291h.194c.161.146.323.291.484.436 0 .017-.016.052 0 .049zm.048-.58c-.02-.016-.063-.031-.097-.098-.013-.026-.028-.059-.034-.092 0-.002 0-.005-.001-.007-.004-.034.003-.068.035-.095.007-.011.092-.044.16-.011.088.044.114.077.13.105 0 .001.001.001.001.002.001.001.001.003.002.005.018.039.012.1-.011.14-.026.046-.131.09-.185.051zm.63.484c-.094.076-.278-.048-.318-.073-.039-.023-.196-.128-.12-.192.044-.038.145-.111.196-.218.019-.042.277-.053.338 0 .062.05-.003.406-.096.483zm.58.242c-.131.102-.344.017-.387-.049s.105-.366.339-.242c.087.047.064.256.048.291zm-.048-1.404c-.071-.064-.133-.17-.097-.241.036-.072.039-.134.097-.146.058-.013.189.049.242.146.053.095-.009.201-.048.241s-.133.057-.194 0zm.569 1.252c-.177.026-.362-.098-.375-.187-.014-.089.006-.231.029-.272s.043-.018.116-.066c.073-.049.412.189.436.242.061.131-.121.271-.206.283zm2.586-.299c.038-.06.207-.029.207-.045l.137.03c.146.13.1.383-.013.417-.266.081-.371-.034-.388-.146-.02-.133-.019-.134.057-.256zm.475.781c-.017 0-.05.097-.062.107-.214.191-.222-.016-.199-.1s.008-.077.027-.127c.049 0 .107-.114.157-.057.05.058.06.129.077.177zm-.46.107c.084.146.072.306-.087.364-.272.103-.274-.177-.29-.242.158-.035.293-.267.377-.122zm-.943-1.26c.14-.062.369-.062.436 0 .012.012.143.178.145.193.048.401-.143.463-.29.484-.148.021-.366-.129-.436-.242-.144-.23.101-.422.145-.435zm.242 1.936c-.041.012-.077.02-.11.023h-.096c-.056-.008-.098-.032-.133-.071-.093-.062-.13-.194-.097-.291.035-.1.043-.107.119-.131.052-.015.031-.037.13-.046.25-.019.222.039.332.177.138.173.001.295-.145.339zm-.726-1.162c.073-.08.187-.134.287-.118.167.025.183.153.294.263-.009.326-.242.323-.242.339-.065.018-.098.088-.194.05s-.149-.123-.157-.192c-.029-.098-.061-.261.012-.342zm3.098.291c-.026.089-.014.146-.025.235-.002.008-.011.055-.023.055-.275.064-.383.033-.823.193-.441.161-.524.218-.746.354-.028.017-.058.037-.09.057-.001.001-.002.002-.003.002-.212.137-.498.333-.565.41-.181-.02-.31-.063-.436-.145-.016-.033-.403-.242-.435-.242-.002-.004-.012-.012-.027-.023-.001-.001-.001-.001-.002-.002-.12-.087-.577-.364-.698-.508-.054-.055-.02.001-.048-.097.048-.017.369-.15.484-.242.036-.029.101.432.411.37.036-.007-.049.209.119.477.001.001.001.002.001.002.015.023.031.047.05.071.091.115.336.099.336.115.189-.003.297-.076.39-.163.007-.007.012-.015.017-.023.001 0 .001-.001.002-.002.032-.045.049-.106.088-.125.043-.02.222.13.421-.046.161-.142.084-.291.146-.299.1-.012.26-.03.321-.092.062-.062.092-.269.07-.333-.022-.066-.064-.242-.048-.242.075-.292.613-.448.58-.436-.032.011.398-.141.533-.146.081-.008.276.012.242.048-.036.04-.048.098-.048.098-.051.125.031.304.016.364-.014.062-.15.112-.21.315zm.581.339c-.255.08-.416.053-.436-.097-.044-.338.133-.387.242-.437.218-.098.206.099.388.146.003.227-.178.383-.194.388zm-.242-.92c.045-.028.026-.024.048-.049.078-.085.171.012.194.049.027.043-.009.113-.048.145-.023.019-.183.021-.194 0-.015-.021-.041-.12 0-.145zm.387-.242c-.106 0-.416-.021-.435-.145-.014-.086-.008-.138.047-.193 0 0 0-.001.001-.001 0-.001.001-.001.001-.002.016-.02.03-.099.047-.144.017-.041.039-.066.097-.097.049 0 .105-.01.145.017.127.081.127.136.168.224.001.002.001.003.002.005.007.014.015.029.024.045.098.167.046.291-.097.291zm.872.435c.039-.102.427-.104.484 0 .011.021.017.03.021.037.002.003.003.007.003.008.013.052-.003.125-.024.148-.037.042-.025.02-.065.059-.04.038-.019.097-.081.136-.095.061-.362-.019-.387-.098-.024-.078.009-.188.049-.29zm-.194.63c-.097.028-.056.038-.097.048-.041.011-.157-.002-.194-.048-.036-.046-.078-.092-.048-.146.031-.055.061-.04.097-.097.036-.059.181-.026.242.048.061.076.022.152 0 .195zm-.194-1.501c.077-.028.16-.019.194.048.007.015.011.031.013.047 0 .002.001.004.002.006.004.057-.02.117-.063.141-.049.017-.107.061-.146.05-.038-.012.007-.024-.048-.05-.031-.014-.035-.081-.02-.141.001-.002.001-.004.002-.006.012-.044.035-.083.066-.095zm6.245-1.162c-.398-.178-.908-.423-1.258-.484-.351-.061-1.024-.057-1.303-.036-.279.022-.939.159-1.202.247-.129.043-1.053.419-1.32.757-.061.077-.205.001-.29-.048-.038-.021-.087-.075 0-.145.048-.017.678-.521.678-.536.032 0 .666-.385.968-.529.016-.008.034-.016.053-.023.347-.145 1.205-.349 1.205-.364.065 0 .976-.266 1.322-.313.347-.049 1.099-.219 1.196-.219-.027.066-.051.043-.082.128-.016 0-.043.348.016.408.057.056-.145-.022-.225.045s-.107.056-.145.194c-.008.027-.019.07-.027.121v.001c-.03.194-.014.506.414.555.01 0 0 .161 0 .241zm-.242-.581c-.01-.036-.014-.13 0-.216v-.001c.013-.082.042-.158.097-.171.107-.022.325.044.418.171v.001c.006.007.013.015.018.022-.002.138-.049.29-.049.29s-.055.045-.097.049c-.161-.003-.334.045-.387-.145zm.436.485c0-.049-.039-.102 0-.146s.111-.106.145 0c.034.107-.104.173-.145.146zm.291-.872c-.154-.003-.287-.126-.34-.193-.052-.067-.044-.292 0-.387.045-.096.146-.097.146-.097.346.004.411.127.435.241.024.115-.088.439-.241.436zm.435.92c-.056.042-.191.075-.29 0-.1-.076-.131-.316-.049-.388.083-.071.079-.052.194-.049.136.093.142.179.193.291.052.112.008.104-.048.146zm.024-1.073c-.019-.116-.051-.12-.043-.22.008-.101-.017-.225.048-.285.14-.128.312.118.358.222.047.104.002.262-.048.291s-.296.108-.315-.008zm.702.637c.106.095-.267.404-.339.339-.071-.064-.116-.181-.193-.242-.077-.06-.084-.1-.049-.193.035-.094.475.001.581.096zm-.154-.406c.011.037-.011.068-.046.093 0 0 0 .001-.001.001-.066.045-.179.063-.206.046-.026-.018-.033-.035-.036-.046v-.001c-.001-.007-.001-.013-.001-.013 0-.048.036-.058.075-.102s.181-.084.215.022zm3.558-5.373c.073-.039.185-.021.227.067s-.02.198-.097.242c-.002.001-.006.002-.008.003-.001 0-.001 0-.001.001-.037.017-.09.021-.135 0 0-.001 0-.001 0-.001-.05-.025-.09-.084-.083-.197.013-.066.023-.076.097-.115zm-1.129-.127c.028-.056.115-.105.194-.048.145.104.154.232.097.29-.057.059-.239.022-.291-.048-.051-.07-.027-.138 0-.194zm-.346.44c0-.001 0-.001 0 0 .009-.043.028-.081.056-.102.072-.053.135-.03.194 0 .032.019.045.06.048.101.001.016.001.031 0 .045-.028.283-.185.213-.257.146-.045-.041-.056-.122-.041-.19zm.685.867c-.061.055-.375.142-.532 0-.042-.037-.059-.077-.077-.152-.016-.067.022-.278.022-.278.188-.004.269-.033.345-.15.175.047.203.162.339.242-.009.182-.035.283-.097.338zm.049-1.452c-.057-.201.017-.284.048-.339.031-.056.128-.082.242-.098 0 0 .009-.001.02-.002.013-.004.023-.009.077.002.074.017.08.086.145.194s.09.068.097.194c.008.125.015.205-.145.29-.16.086-.427-.04-.484-.241zm.968 1.549c-.02.095-.06.135-.145.194-.086.058-.228.078-.339 0s-.166-.167-.171-.249-.066-.115-.005-.305c.062-.189.137-.158.137-.158.113-.032.132.044.281.082.148.039.13.015.194.097s.068.245.048.339zm.242-.581c-.02.035-.127.095-.165.063-.037-.032-.218-.087-.163-.178.055-.089.053-.101.115-.104.062-.005.092.021.165.074.072.052.069.111.048.145zm1.21-.823c-.087-.043-.13-.134-.065-.229.038-.059.064 0 .114.037.032.016.079-.021.097.048.017.068-.059.187-.146.144zm1.408.285c-.095-.08-.076-.131-.076-.131-.016-.049-.021-.054-.049-.146s.093-.223.194-.242.256-.033.333.141c.078.174-.173.574-.402.378zm.335-.817c.077-.062.1-.036.172.012.073.048.056.121.022.181-.065 0-.127.044-.194 0s-.077-.133 0-.193zm-.581-.194c-.012-.133.02-.213.146-.242.124-.029.237-.019.29.048.016.065.068.126.048.194-.019.068-.029.101-.097.145m-.241.968c.015.014.022.032.026.052v.001c.006.035-.003.073-.026.093-.037.03-.097.084-.166.019-.037-.036-.05-.074-.048-.111 0-.001 0-.001 0-.001.001-.031.013-.063.032-.09.097-.145.137-.001.182.037zm-.388-1.597c.115.031.158-.003.194.098.036.099-.012.149-.097.192-.085.044-.165.005-.194-.048-.029-.054-.043-.229.097-.242zm-.14 1.133c.179.127.275.322.13.516-.001 0-.001 0-.001 0-.011.015-.023.03-.037.045-.118.123-.382.107-.484 0-.03.014-.075-.006-.114-.045-.081-.079-.136-.237.017-.342.013-.01.022-.214.193-.242.172-.028.157-.03.296.068zm-.102-.455c-.045.155-.099.175-.145.192-.228.093-.413-.036-.436-.097-.022-.061.014-.082.006-.237-.008-.152-.033-.188.089-.282.123-.093.266-.071.341-.013.075.06.19.28.145.437zm0-1.84c-.032.098-.065.194-.097.291-.016 0-.032 0-.048 0v.098c-.016 0-.032 0-.049 0-.016.048-.032.096-.048.144-.048 0-.097 0-.145 0 0-.08 0-.161 0-.241.08-.097.161-.193.242-.291.032-.016.065-.031.097-.048 0-.033 0-.064 0-.097.032-.016.064-.032.096-.049.111-.173.055-.271.243-.388 0-.031 0-.063 0-.097h.048c-.061.264-.226.467-.339.678z"/><path d="m60.09 52.87c-.018-.069-.065-.032-.097-.048-.05-.037-.075-.096-.114-.037-.065.096-.021.187.066.229"/><path d="m60.913 50.062c-.188.116-.132.215-.242.389-.032.016-.065.032-.097.048v.097c-.032.017-.064.032-.097.048-.081.098-.161.194-.242.291v.242h.145c.016-.049.033-.097.049-.145h.048c0-.033 0-.065 0-.098h.049c.032-.097.064-.193.096-.291.113-.211.278-.414.339-.678-.016 0-.032 0-.048 0z"/><path d="m16.248 49.476c-.034.104-.021.267.001.372h.322c-.049-.122-.049-.13-.146-.365-.049-.119-.112-.206-.177-.007"/><path clip-path="url(#a)" d="m70.595 41.881c-.076-.029-1.524.25-1.936.387-.559.188-1.533.822-1.815 1.057-.282.234-1.24 1.095-1.562 1.481-.462.555-.983 1.224-1.141 1.435h2.823c0-.033.25-.646.363-.903.177-.402.676-1.159.847-1.375.172-.215.57-.702.969-1.016s1.42-.91 1.452-.969c.032-.058 0-.065 0-.097"/><path d="m11.874 49.723c-.113-.226-.651-1.004-.968-1.259-.268-.214-.708-.491-1.259-.677-.316-.107-.63-.22-.823-.339-.264-.163-.596-.426-.774-.581-.179-.156-.63-.612-.63-.627-.127-.164-.652-.828-.968-1.406-.146-.267-.521-1.054-.581-1.162s-.161-.097-.194-.097c0 .016-.221.461-.015 1.493.118.591.194.729.332 1.172.141.396.239.865.817 1.995.247.483.762 1.203 1.117 1.611h4.854c-.303-.041-.606-.082-.908-.123"/><path d="m15.602 46.964c-.05-.192-.208-.612-.242-.724h-1.549c0 .273.005.506 0 .82-.006.314-.03 1.183.097 1.889.07.39.182.712.242.897h1.791c.001-.935-.072-1.595-.097-1.817-.026-.223-.192-.872-.242-1.065"/><path clip-path="url(#b)" d="m16.521 53.451c-.052-.063-.197-.228-.291-.339-.027-.033-.371-.581-.387-.581-.031-.101.049-.146.049-.146 0-.226 0-.452 0-.678.016 0 .025-.228.025-.228-.031-.341-.008-.927.008-.927 0-.225.015-.7.015-.707h-1.791c.053.152.114.31.214.522.113.242.302.499.427.652s.332.401.569.542v.387c-.016 0-.048.032-.048.049-.241-.063-.485-.501-.533-.533 0-.032-.177-.339-.194-.339-.016-.048-.403-.613-.435-.629 0-.032-.367-.643-.381-.651h-.001c-.018-.01-.185-.26-.204-.269-.016-.065-.515-.881-.721-1.162-.207-.281-.642-.889-.726-1.016-.085-.128-.43-.643-.484-.92.096.028.021.026.096.048.174.048.343.04.436 0 .053-.023.071-.086.103-.135.032-.016.058-.043.091-.059.01-.032.021-.063.031-.095.006-.018 0-.056.017-.051.213.05.348-.046.436-.097.096-.057.189-.189.237-.327-.001-.002.029-.123.005-.206-.01-.034-.036-.094-.097-.145 0 0-.194-.129-.242-.146-.016-.097.045-.147-.049-.291-.072-.11-.23-.052-.242-.097-.082-.317-.158-.372-.242-.436-.025-.02-.29-.129-.29-.146-.332 0-.474.393-.484.389-.125-.053-.237-.071-.339.048-.032.037-.009.14-.049.193-.114-.012-.119-.021-.193-.049 0-.063.023-.131.076-.211.053-.079.376-.096.553-.225.178-.128.446-.354.678-.678.232-.322.379-.89.436-1.259.056-.368.04-1.134.048-1.307s0-.078 0-.116c-.008-1.132-.147-2.188-.532-2.934-.077-.148-.184-.202-.194.049-.022.565-.016 1.106-.145 1.694-.092.415-.434 1.177-.436 1.19 0 .022-.516 1.181-.532 1.181 0 .05-.536.822-.388 1.791.018.119.058.161.104.216.047.054.082.069.108.097.025.027-.038.15-.054.15-.029.097-.379-.778-.448-.946-.206-.496-.371-1.113-.387-1.113-.056-.144-.255-.771-.194-.968.016 0 .052-.184.097-.291.006-.015.009-.042.048-.116h-.156.156c0-.01.25-.656.347-.914.097-.257.301-.955.573-1.391.027-.043.196-.158.242-.193.538-.413.827-.868.968-1.113.375-.651.45-1.156.536-1.531.086-.376.054-1.922.045-2.148-.004-.112-.048-.726-.048-.919 0-.012-.001-.023-.001-.035 0-.505.025-.76.063-1.166.041-.439.172-1.535.188-1.658.016-.124.177-.996.19-1.061-.01.048.049-.198.059-.237.011-.066.068-.354.033-.441-.023-.062-.134.037-.161.069-.105.124-.277.358-.288.372h.277-.277c-.093.125-.287.379-.413.563-.429.626-.755 1.205-.896 1.535-.07.161-.19.404-.223.502-.033.097-.242.628-.294.782-.053.154-.205.665-.228.74-.046.156-.232.724-.267.828-.097.286-.276.982-.28.998-.109.459-.232 1.287-.096 2.178.116.762.338 1.47.338 1.501.017 0 .017.513.049.388-.035.14-.11.301-.207.548s-.311.838-.419 1.138c-.107.301-.183.527-.225.667-.007.022-.022.075-.043.064-.021-.012-.029-.033-.052-.064h-.652v.068c.113.354.404 1.097.436 1.112.032.098.258.533.29.63.017 0 .177.482.209.5.048.145.161.401.209.547.016 0 .389.856.405.938.017 0 .11.318.11.366.096.214.33.604.278.602-.053-.001-.511-.135-.92-.435-.059-.043-.082-.102-.097-.194-.018-.11-.044-.453-.097-.726-.052-.273-.312-1.086-.347-1.195-.178-.548-.416-1.193-.797-2.213-.006-.026-.457-1.063-.599-1.288-.142-.224-.63-.957-.968-1.404-.337-.446-.957-.988-1.307-1.258-.406-.313-1.394-.968-1.716-1.129-.404-.202-1.019-.439-1.653-.525-.249-.034-.526 0-.649.057s-.06.093 0 .145c.06.054.963.619 1.261.883.426.376.73.74.966 1.199s.623 1.688.774 2.033c.152.345.533 1.262.533 1.288.002.027.44 1.034.561 1.233.122.199.462.934 1.037 1.642.574.709 1.003 1.075 1.307 1.308.303.232.774.433.968.532.284.147.387.032.581.048 0 .018.064.05.097.05.016.031.24.194.24.211.002.001.2.129.203.13h1.089-1.089c.548.267.864.271 1.154.337 0 .016.167.123.291.338.123.215.552.913.677 1.162.125.25.305.545.484.872.18.326.401.682.436.773.036.093.028.083.041.124.003.007.005.015.008.021-.053-.007-.106-.015-.158-.021h-4.854c.069.066.454.395.864.571.411.176.83.223.918.241.202.04.838.023 1.196-.064.259-.063.522-.177.675-.277.056-.037.098-.061.148-.11.078-.076.954.218 1.211.242 0 .017-.224-.002-.339.049-.07.031-.12.073-.142.094-.011.021-.075.11-.1.148-.097 0-.208-.05-.291 0-.094.056-.144.125-.193.192-.059.082-.064.417.048.485.057.034.097.032.145.048-.016.098-.032.194-.048.29.016 0-.067.173.178.295.025.014-.206.237-.081.388.011.013.004.021.004.036-.145-.031-.425-.177-1.457-.428-.374-.091-1.073-.174-1.597-.483-.368-.219-.891-.61-1.017-.679-.126-.067-.139-.02-.193.048-.055.069.001.286.096.437.096.15.382.628.648.947.265.317 1.031 1.135 1.047 1.135.001.001.002.002.002.003h4.857c-.343-.172-.675-.335-.758-.378-.136-.07-1.003-.368-1.003-.4h.097c.046-.02.145-.063.145-.048.193.052.363.088.484-.049.175-.047.215-.204.242-.387.292-.029.397-.244.387-.581.187.109.436.477.484.532.049.056.492.561.582.678.068.09.249.365.294.438.023.028.078.104.147.194h.915c0 .003 0 .002-.001.001m-4.303-7.211c-.043.079-.128.128-.151.143-.09.059-.36-.09-.385-.143-.001-.001-.002-.002-.002-.002-.048-.127.044-.296.097-.339.079-.065.229-.109.386.004 0 0 .017.082.049.141.043.078.034.143.006.196zm.644-.698c0 .016.012.093.009.108-.026.14-.1.205-.139.249 0 0-.226.097-.291.097 0-.016-.044-.031-.057-.041-.069-.058-.117-.065-.088-.25.024-.152.18-.085.291-.193.11-.083.192-.002.275.03zm-.504-.466c.032-.037.109-.033.145 0 .073.065.055.188.048.242s-.301.163-.339.049c.026-.204.068-.203.146-.291zm-1.556.401c-.036-.058-.102-.171-.038-.265.064-.092.073-.1.146-.096.152.008.392-.002.435.145.048.163-.112.368-.145.388-.098.045-.315-.042-.398-.172zm.539.761c-.002.001-.005.001-.007.002h-.245c-.018-.013-.031-.029-.039-.051-.039-.117-.03-.222 0-.242.097-.029.004-.001.097-.048.141-.072.22.047.242.097.052.116.03.213-.048.242zm.097-1.259c-.07.069-.172-.025-.186-.036-.031-.046.039-.123.093-.109l.061.022c.018.017.127.029.032.123zm.194-.29c.031-.073.109-.118.166-.151l.117-.022c.274.003.283.121.297.174l-.193.387c-.174.169-.312-.048-.347-.251-.055-.056-.081-.045-.04-.137zm1.888 6.003c-.017.031-.033.063-.049.096-.065 0-.129 0-.194 0-.027-.113-.03-.18-.106-.241 0-.016-.039-.033-.039-.049.192.038.253.117.388.194zm-1.323.585c-.043.006-.167.023-.185-.054-.046-.202.117-.334.204-.34.071-.005.102.015.135.099.03.074 0 .16 0 .241-.048.001-.11.048-.154.054zm.015.528c.019-.156.042-.21.097-.241.056-.033.163.001.194.048.031.048.018.155-.019.209-.036.053-.061.122-.168.094-.094-.026-.104-.11-.104-.11zm.617.284c.049.081.061.199.049.291-.007.039-.138.114-.242.146-.218.063-.299-.011-.339-.194-.025-.111.067-.297.194-.305m.448-.852c-.052.024-.249-.004-.291-.048s-.101-.168-.097-.242c.005-.074-.01-.045.049-.145.097-.063.209-.144.378-.02.143.107.107.079.131.139.023.059-.119.293-.17.316zm.381 1.247c-.077.024-.227.065-.28.004-.038-.044-.05-.138-.059-.198-.018-.115.065-.195.145-.241.326-.047.376.258.387.193-.032.184-.086.208-.193.242zm-.043-1.053c.007-.102.063-.286.049-.338.213-.066.357-.035.435.048.17.177.015.379-.193.435-.076.021-.297-.043-.291-.145zm.533.581c-.158.051-.215.014-.242-.098-.008-.03 0-.063 0-.097.062-.029.103-.047.145-.096.048.016.118.005.145.048.056.088.031.218-.048.243z"/><path d="m13.08 45.766c0 .001.001-.002.005-.012-.002.004-.004.008-.005.012"/><path d="m15.024 45.474c-.068-.143-.378-.676-.536-.882-.148-.194-.48-.563-.656-.712-.217-.186-.563-.381-.699-.45-.066-.032-.098-.049-.13-.041-.032.009-.089-.032-.064.089.025.123.116.217.194.34.095.15.196.333.281.521.104.233.274.692.346 1.144.06.371.051.628.051.758h1.549c0-.001 0-.001 0-.002-.054-.161-.264-.612-.336-.765"/><path d="m63.01 41.087c.007-.105-.031-1.031-.079-1.466-.049-.436-.161-.935-.242-1.208-.07-.237-.37-.982-.42-1.034-.051-.052-.208-.27-.29 0-.084.271.163 1.131.096 1.84-.066.707-.788 1.837-.8 1.868h.991z"/><path d="m63.092 25.518c.081.186-.171.409-.008.608.048.197.24.276.444.313-.015.52.12.414.484.532-.015.111-.011.122-.048.193-.017 0-.017.162 0 .242-.126-.034-.646-.467-.824-.581-.177-.113-.617-.548-.774-.727-.055-.062-.055-.657-.127-.915-.073-.258-.146-.427-.212-.586 0 0 0 0 0-.001-.553-1.497-1.566-2.262-1.888-2.563-.453-.424-1.078-.879-1.234-1.004-.362-.29-1.006-.668-1.186-.787-.181-.12-.392-.284-.485-.339-.092-.057-.197-.025-.193.048.003.073.088.256.141.321.073.089.205.294.322.45.121.161.514.625.757 1.119.282.572.289.825.419 1.297.169.612.499 1.256.611 1.458h.001c.009.035.523.821.895 1.212.13.136.683.688 1.55.823.085.015.225 0 .339 0 .016.032.452.363.565.468s.844.572.983.694c.064.055.161.2.243.242.082.041.376.271.532.387.156.115.254.278.259.297.075.24.125.313.225.72.166.357.17.923.158 1.122-.013.2-.126.379-.109.476-.069.416-.097.929-.097 1.404 0 .139.003.271.01.4h1.781c0-.005.539-.205.83-.371.291-.167.668-.483.913-.756.244-.272.475-.507.81-1.023.397-.561.676-1.643.739-1.972.026-.163.146-1.077.145-1.604-.037-.34-.041-.694-.017-.768.024-.071-.007-.135-.031-.152-.025-.019-.086-.047-.146 0-.059.047-.114.438-.193.629s-.664 1.056-.968 1.259c-.266.222-.689.52-.791.636h-.001c-.194.152-.718.563-1.048 1.011-.331.447-.644 1.024-.774 1.354-.131.33-.533 1.195-.533 1.211-.016 0-.032 0-.048 0 .012-.521.115-1.468.193-1.695.078-.226.033-.581.049-.87.032-.017.231-.225.29-.291.083-.094.197-.209.34-.407.019-.026.26-.297.271-.313.197-.275.446-.654.494-.773.048-.066.379-.041.928-.347.058-.032.512-.372.678-.678.222-.409.367-1.177.384-2.324 0-.001 0-.001 0-.001-.009-.781-.162-1.338-.19-1.499-.028-.162-.318-1.029-.484-1.113-.06-.029-.1-.054-.146.097-.045.15-.001.781-.172 1.171-.144.33-.359.567-.509.786-.159.229-.396.541-.407.559h-.001c-.188.321-.698.965-.75 1.6-.056.681.08 1.354.096 1.354 0 .083-.023.372-.096.485-.032.016-.501.661-.533.677-.002.002-.003.004-.005.007-.065.079-.162.24-.237.284-.075.043-.064 0-.097 0-.028-.095-.056-.188-.085-.284-.02-.068.136-1.459.182-1.604.046-.146.261-1.079.291-1.162s.09-.182.145-.339c.055-.156.145-.918.145-1.018 0-.064.122-.968.097-1.741-.026-.775-.126-1.315-.264-1.706-.139-.392-.306-.789-.484-1.079-.185-.304-.576-.808-.821-1.063s-.448-.439-.66-.901-.362-1.405-.385-1.755c-.071-1.418.176-2.223.24-2.405.064-.183.032-.279-.046-.288-.357-.044-.636.458-.716.6-.08.143-.215.397-.35.755-.175.468-.435 1.28-.435 1.339 0 .007-.385 1.433-.242 3.213.143 1.778 1.08 3.356 1.355 3.823.275.468.643.968.845 1.209h.001c.042.035.51.711.51.728-.129 0-.259 0-.388 0 0-.048 0-.097 0-.146-.016 0-.051-.301-.083-.316-.141-.153-.203-.261-.403-.169-.064.023-.161-.017-.24.051-.079.066-.129.161-.194.242-.032 0-.033-.028-.096 0-.091.039-.099.081-.146.097-.076-.165-.166-.328-.255-.486h-.617s.195.309.195.34c0-.002.355.563.387.579m.91 1.147c-.022.087-.154.162-.266.089-.066-.044-.059-.028-.043-.008-.075-.087-.043-.147-.02-.163.041-.029-.017-.071.097-.097s.152-.046.2.002c.056.056.054.09.032.177zm.155.257c0-.032-.075-.088-.058-.168.016-.081.04-.145.106-.171.067-.025.127-.046.194.049s.046.219 0 .29c-.046.072-.147.057-.242 0zm.94-.579c-.016 0-.064-.129-.081-.129-.025-.063.045-.356.061-.356 0-.098 0-.194 0-.29.174.047.281.095.339.241.084.213.012.458-.094.761 0 .063-.16 1.094-.148 1.03-.037.201-.061.289-.097.34-.01.013-.066.11-.145.048-.093-.074-.31-.268-.35-.348-.041-.081-.185-.339-.153-.5.153-.161.177-.232.193-.338.048.065.29-.016.358-.074.077-.065.178-.194.117-.385zm-.553-.05c.15 0 .263-.046.339.048.076.095.053.252-.048.291-.101.038-.194.008-.242-.049 0-.032-.092-.087-.108-.087-.066-.1-.016-.153.059-.203zm.146-.823c.132.013.173.013.242.098.068.085-.004.445-.145.483-.142.037-.238.043-.291 0-.025-.123-.065-.223-.145-.291.016-.048-.035-.077.048-.145s.158-.157.291-.145zm-.726-.63c.096.018.207-.002.29.049.083.052.078.029.097.146.018.116.046.295 0 .387-.046.093-.093.219-.291.194-.034-.004-.1.04-.163-.085-.063-.124.131-.287-.079-.447.029-.224.104-.23.146-.244zm-.388.339c.118.03.136-.011.194.098s-.002.141-.049.145-.17.004-.193-.048c-.024-.053-.025-.174.048-.195zm-.145.436c.2-.003.088-.054.233.027.014.009.088.33.072.33.002.196.039.284-.056.322-.096.038-.29-.078-.338-.104s-.064-.088-.113-.146c-.177-.208.266-.474.202-.429z"/><path d="m65.948 33.022c.097 0 .678-.17.678-.181h-1.781c.022.424.081.796.184 1.148 0 .112.108.84.096 1.017s-.277 1.216-.435 1.5c-.158.285-.236.687-.291.728-.035-.163-.204-.411-.145-.631.115-.428.263-1.428.231-1.91-.032-.483-.056-.935-.2-1.852l-1.915.001c-.018.207-.105 1.183-.059 1.713.047.531.322 1.063.491 1.322.168.259.952 1.065.968 1.065.097.322.194.646.29.968.046.117-.04.247-.048.242-.134-.092-.356-.046-.484.049s-.145.39-.049.387c-.106.003-.193.158-.242.242-.048.084-.018.35.049.436s.129.193.145.193c-.016.033-.155.394.246.521.144.122-.15.763-.281 1.105h.616c0-.01.161-.632.242-.755.098-.149.265-.113.359-.057.144.087.4-.043.464-.089s.161-.264.048-.388c.026-.203.229-.261.243-.29.223-.497-.049-.597-.097-.629-.06-.188.131-.596-.049-.678-.209-.097-.226 0-.339 0 .033-.162.077-.498.093-.498.017-.177.085-.341.101-.52.016 0 .041-.024.097-.097.173-.221.165-.946.387-1.549.066-.178.159-.628.124-.734-.035-.104-.043-.428-.027-.428 0-.08-.013-.296.048-.484.062-.183.195-.594.242-.867m-2.275 5.325c.043-.028.081-.033.145 0 .065.034.084.101.037.158-.046.061.014.082-.13.097-.082-.019-.096-.202-.052-.255zm-.242.871c-.024-.058-.072-.336 0-.435.087-.065.216-.154.328-.022.111.13.198.111.205.167.006.057.012.325-.049.388-.061.061-.46-.039-.484-.098zm.41.363c-.024.072-.061.089-.071.121-.026.081-.065.181-.131.101-.068-.081-.073-.188-.073-.188 0-.065.053-.107.156-.106.102 0 .143-.001.119.072zm.462.46c-.07.017-.259.07-.291.049-.031-.021-.099-.051-.097-.097s-.031-.253.097-.291c.128-.037.273-.025.339.097s.02.226-.048.242zm.29-1.404c-.078.08-.373.146-.484 0-.111-.145-.016-.29 0-.29.048-.18.194-.241.194-.241.064 0 .11-.015.193 0 .084.014.19.05.194.145.003.094-.02.307-.097.386zm.391 1.291c-.005.121-.063.136-.101.162-.037.027-.208.012-.242-.049-.033-.06.029-.2.097-.242s.119-.104.198-.054c.078.049.048.183.048.183zm.141-.468c-.036.034-.175.116-.242.049-.066-.066-.135-.42-.048-.483.231-.002.32.046.371.093.05.046-.044.308-.081.341zm-.048-1.113c.079.039.095.048.097.098.002.049-.06.303-.097.339s-.358.123-.387.048.029-.072.072-.21c.053-.169.121-.227.121-.227.086-.068.115-.087.194-.048z"/><path d="m63.479 29.924c0-.063-.59-1.189-.595-1.204-.012-.035-.214-.392-.371-.61-.07-.105-.235-.294-.331-.378-.086-.074-.187-.102-.203-.082-.017.018-.054.027-.051.109.019.399.244.91.244.961.001.035.226 1.204.242 1.204 0 .161.049.678.049.775.015 0-.079 1.8-.094 2.144h1.916c-.011-.134-.403-1.757-.418-1.757-.017-.129-.372-1.162-.388-1.162"/><path d="m69.143 31.715c-.061-.057-.231.004-.278.023-.254.104-.583.377-.677.451-.093.073-.691.648-.691.653l1.061-.001c.033-.101.218-.5.343-.643.125-.144.234-.229.27-.284.072-.111-.026-.197-.028-.199"/><path d="m7.986 22.855c-.044-.37.018-1.687-.082-1.984-.027-.082-.075-.128-.145 0-.008.014-.333.954-.339.969-.177.418-.443 1.185-.448 1.199-.145.419-.301.881-.536 1.558h1.819c-.011-.056-.1-.575-.11-.643-.051-.313-.078-.421-.159-1.099"/><path d="m9.479 16.353-.045-.001z"/><path d="m29.475 8.544c-1.522-.253-4.111 1.483-4.143 1.531-.049 0-.097 0-.146 0 0 .016-.495-.006-.678-.048-.182-.042-.968-.307-.968-.339.187-.053 1.501-.759 1.501-.775.145 0 1.564-.087 2.179-.269.113 0 1.401-.298 2.947-1.297 2.45-1.956 3.346-3.742 3.346-3.808-.016 0-1.776 1.006-3.072 1.296-1.323.122-3.154.649-3.657.931s-1.146 1.113-1.21 1.162c-.557.6-.815 1.383-.815 1.415-.097.032-1.213.736-4.752 3.087-.136.081-.171.176-.388.193.06-.335.269-1.063.484-1.21.145-.048.331-.066.533-.193 0-.017 2.33-1.222 2.904-4.212.671-3.312.001-3.603-.096-3.631-.231 2.509-2.058 3.691-2.179 3.921-.032 0-1.903 1.838-2.033 3.244.347.744.129 1.065.145 1.065-.032.16-.048.291-.29 1.307-.076.539-3.177 3.923-3.665 4.437-.037.04-.059.063-.063.065-.006-.016-.013-.038-.018-.065h-.217.217c-.068-.304-.094-1.238.599-1.436 1.414-1.367 1.533-2.275 1.549-2.275.032-.177.273-1.131.484-2.178.492-2.315 1.3-3.521 1.21-3.97-.064 0-.128 0-.193 0 0 .016-2.856 3.55-2.856 3.582-2.352 3.312-1.372 4.971-1.356 5.035.016 0 .052.227.048.241v.242c-.007 0-.018.358-.027.758-.011.48-.021 1.021-.021 1.082-.048.032-1.969 2.081-1.985 2.081.774-1.086 1.16-2.169 1.315-3.162.38-2.414-.599-4.294-.637-4.39-1.066-2.159-2.501-2.533-2.517-2.564-.081 0-.302-.066-.242 0 1.269 1.654 1.765 4.442 1.111 5.849-.166.355-.337.727-.485 1.104-.438 1.112-.688 2.282-.094 3.31 0 .003-.081-.02-.128-.014s-.09.028-.107.044c-.055.047-.059.049-.101.159.006-.015-.126-.154-.224-.185-.072-.022-.169-.043-.323.023-.022.009-.144.103-.173.139-.048-.227-.124-.546-.173-.772-.016 0-.334-1.11-.338-1.127-.225-.998-.212-1.421-.191-1.577h-.008-.045.045c.034-.35.216-1.795.508-2.598.089-.246-.144-.04-.194 0-.389.311-1.162 1.333-1.488 2.536-.002.009-.012.04-.014.046-.015.047-.159.514-.239.949-.107.578-.177 1.111-.194 1.739-.016.628.081 1.176.258 1.787.005.016.241.898.789 1.952.041.079.131.188.153.211.043.047.138.146.154.146.016.063.267.63.309.764.032.103.024.185.03.278.009.144.018.289.027.434.007.114.021.485.021.485.024.45-.096 1.388-.096 1.598-.017 0 .005.14-.146.679.005-.017-.048.063-.048.097-.049.032-.099.183-.097.193 0 .08.032.241.048.241v.83c0 .444-.118 1.549-.154 2.035-.032.443-.08.957-.096 1.185-.017.231-.024.482-.088.646-.037.094-.235-.179-.243-.194-.482-.92-.861-1.717-.871-1.888-.01-.17.014-.307.097-.435.05-.078.082-.117.097-.146.098-.189.211-.464.211-.496.016 0 .193-.507.224-.707.066-.332.082-.299.098-1.016.017-.779-.254-2.916-.279-3.107l-1.819.001c-.13.334-.398 1.067-.468 1.804-.116 1.211.183 2.204.202 2.318.037.119.134.454.254.779.061.165.262.508.363.645.112.152.272.242.466.402.148.122.429.868.637 1.433.005.016.129.314.256.655.005.016.076.142.095.215h-.005c.087.168.177.29.346.754.049.137.1.956 0 1.065l-.049.048c0-.032.01-.065 0-.097-.018-.059-.081-.095-.097-.097-.202-.022-.281.086-.291.006-.011-.088-.064-.231-.096-.248-.158-.167-.323-.304-.484-.242-.153.059-.226.162-.242.194-.149.066-.281-.096-.436.048-.208.192-.098.333-.187.357-.253.072-.216.272-.248.368-.033 0-.35-.319-.533-.677-.183-.359-.407-1.188-.413-1.487-.08-.76.196-2.133.192-2.117.025-.121.278-1.085.269-1.14-.022-.143-.189-.021-.351.205-.01.014-.176.267-.253.447-.081.188-.124.27-.205.469-.1.246-.114.264-.237.57-.291.722-.436 1.324-.493 1.565-.223.991-.104 2.02-.011 2.361s.399.969.665 1.309c.239.307.77.656.847.707.082.056.992.535 1.636.596.102.01.259.221.437.413.016 0 .11.1.144.167.014.029.043.553.097.727.162.528.111 1.229.275 1.747 0 .058.015.161.015.219h.652c-.088-.137-.279-.545-.313-.658-.123-.407-.049-1.373-.048-1.888.016-.21.016-.63 0-.63 0-.032-.065-.129-.097-.146 0-.258 0-.516 0-.774.001-.542.154-.978.274-1.37.058-.191.097-.421.113-.566.016 0 .081-.517.097-.774.016 0 .072-.481.145-.727.005-.015.166-.615.194-.712.023-.085.046-.299.063-.299 0-.113-.008-.556.056-.749.044-.131.105-.201.089-.298-.019-.11-.057-.186-.073-.186 0-.21.008-1.135.01-1.483.002-.369 0-.738 0-1.107 0-.164 0-.327 0-.491.016 0 .049-.16.049-.241.064-.053.089-.134.145-.194.032-.016.097-.113.097-.145.032-.017.387-.371.532-.532 1.134.007 1.917-.293 2.566-.775.192-.143.514-.505.726-.773.36-.459.537-.746.678-.97 0 0 0 0 0-.001.154-.279.304-.553.387-.676.037-.056.484-.839.532-.872 0-.032.485-.742.533-.773.129-.162.095-.12.227-.279.159-.19.236-.317.209-.254.041-.095.009-.084-.027-.079-.102.016-.229.071-.36.143-.032.018-.223.119-.345.183-.123.063-.318.165-.478.237-.199.092-.376.192-.525.27-.014.007-.477.243-1.025.603-.21.139-.657.483-.823.629-.128.114-.773.741-.918.87-.001.001-.001.001-.001.001-.087.086-.198.189-.281.296-.009.014-.296.322-.349.383-.174.197-.359.391-.871 1.162-.054.08-.06.187-.145.289-.021.025-.065 0-.097 0 .014-.297.123-.539.193-.773 0-.207.04-1.065.054-1.34-.016 0 .011-.017-.005-.017v-.001c0-.08-.006-.161 0-.24.011-.156.127-.394.157-.457.049-.108.21-.479.327-.704.024-.046.152-.115.199-.135.135-.054 4.545-2.626 4.69-2.674.06 0 3.577-1.1 4.37-4.034h.001c.061-.226.106-.463.132-.71-.185-.86 1.376-3.242 1.403-3.341-.054-.041-.007.007-.048-.048-.097.015-1.978 1.384-3.921 3.243-.012 0-.287.34-.649.854h-.001c-.645.918-1.567 2.395-1.771 3.502-.048.017-2.323 1.813-3.243 1.937-.076-.612 2.614-3.404 2.662-3.437.065-.073.815-1.049 1.549-2.002.722-.938 1.429-1.854 1.453-1.87 1.775-2.108 4.165-3.701 5.083-4.261 1.246.285 1.45.273 1.45.289.55.072 1.019.082 1.406.099.457.13.96.206 1.404.339 2.797.617 4.163-.323 4.163-.339.032 0 4.233-2.898 4.26-3.051-.027.007-1.933 1.032-5.974.988m-21.281 26.172c.089-.022.133-.072.194.048.03.061.017.135-.048.194-.049 0-.115.038-.146 0-.093-.116-.076-.222 0-.242zm-.688-.442.059-.042c.084-.035.226-.026.291.048.047.055.025.033.025.05.054.041.042.343-.122.386-.106.078-.32.025-.339-.097-.047-.295.021-.291.086-.345zm-.527.152c.054-.036.13-.024.193 0 .015.005.041.02.049.048-.013-.049.042.071-.049.146-.114-.011-.12-.021-.193-.048-.017-.032-.028-.017-.041-.065-.018-.067.027-.073.041-.081zm-.286.823c-.032-.04-.044-.127-.048-.157-.01-.197.035-.233.097-.278.068-.05.212-.087.29 0 .011.012.033.048.049.048.085.133.094.119.097.241.004.158-.02.187-.097.242-.163.119-.325-.034-.388-.096zm.678.726c-.158-.106-.262-.194-.29-.241-.028-.048.039-.175.097-.194.152-.053.24-.057.339.048.071.077.055.209 0 .339-.049.015-.103.076-.146.048zm.978.604c-.03.121-.047.239-.093.37.005-.016-.067.236-.1.325-.047.126-.104.248-.104.254-.087-.046-.078-.074-.196-.102.003-.511-.102-.726-.119-.782-.025-.084-.271-.48-.22-.477.099.009.11-.008.193-.048.015-.007.104.073.242.062-.016.002.044-.038.097-.062.03-.013.111-.007.124-.037.071-.169-.006-.259.005-.248.033.033.126.018.307-.006-.01.334-.073.499-.136.751zm.087-.992c-.038.034-.193.032-.145.049-.08-.026-.129-.077-.145-.145-.029-.124-.014-.188.048-.242.067-.059.134-.024.194 0 .061.023.073.049.097.145.019.077.008.143-.049.193zm2.778-15.633c.269 0 .162.153.162.243-.041.161-.003.11-.164.163-.16.052-.163-.073-.163-.163s.075-.243.165-.243zm-.4.085c-.005-.019-.006-.025 0 0zm-.551.12c.035-.178.182-.322.29-.29.087.024.219.093.269.201.001.005.002.01.003.015.009.036.018.074.018.074.074.307-.21.353-.29.289-.08-.063-.324-.112-.29-.289zm.434.67c.001.002.002.004.002.006.016.075-.034.13-.163.163-.13.033-.124.034-.197-.101-.081-.149-.019-.294.08-.311.097-.016.272.152.278.243zm-.001-.007c-.008-.035-.004-.016 0 0zm.092 1.421-.371.516c-.069.279-.232.597-.339.871-.054.042-.322-.532-.338-.532.005-.135-.004-.253.048-.339.032-.016.074-.02.097-.049.081-.101.112-.183.136-.26-.044.127.241-1.024.296-1.06.183-.111.322.502.627.502 0 .001-.075.274-.156.351zm.372-.552c-.204 0-.529-.304-.473-.488.055-.186.265-.325.369-.37.084-.036.27.094.34.252-.005-.023-.011-.043-.014-.058-.008-.032-.007-.025 0 0 .003.012.008.03.014.058.017.039.029.078.029.118.112.447-.061.488-.265.488zm.399-.768c-.17-.106-.184-.17-.184-.309 0-.14.065-.163.175-.27.301-.29.35.202.35.202 0 .14-.171.484-.341.377z"/><path d="m10.815 20.04c-.006-.025-.005-.019 0 0"/><path d="m10.696 20.822c-.003-.016-.008-.035 0 0"/><path d="m11.397 21.086c-.007-.027-.011-.046-.015-.059.004.015.009.036.015.059"/><path d="m11.426 21.203c-.002-.01-.004-.018-.006-.026.003.015.006.026.006.026"/><path d="m11.382 21.027c-.006-.025-.008-.032 0 0"/><path d="m16.036 54.031.001.001z"/><path d="m15.456 53.258c.02.029.018.025.004.003-.012-.016-.015-.018-.004-.003"/><path d="m37.822 62.262s-.047.021-.066.028c.01-.005.03-.013.066-.028"/><path d="m32.86 50.336v-.147c.439-.016.484-.086.484-.325v-1.521c0-.162-.045-.191-.406-.191v-.17c.409-.008.535-.06.745-.206h.229v2.089c0 .239.045.31.48.325v.147h-1.532"/><path d="m35.666 47.751c.624 0 .926.591.926 1.219 0 .73-.336 1.41-1.163 1.41-.354 0-.597-.181-.597-.438 0-.175.121-.301.298-.301.137 0 .27.118.27.251 0 .193-.107.26-.27.26v.007c.056.037.163.074.277.074.428 0 .565-.288.565-.668v-.344h-.008c-.095.125-.265.199-.428.199-.435 0-.738-.347-.738-.768 0-.506.343-.901.868-.901m-.015 1.499c.192 0 .321-.218.321-.546 0-.62-.081-.805-.292-.805-.21 0-.262.222-.262.639 0 .557.089.712.233.712z"/><path d="m37.349 50.336v-.147c.358-.015.402-.086.402-.325v-.178h-.938l.015-.229 1.2-1.705h.292v1.72h.42v.214h-.42v.178c0 .239.044.311.354.325v.147zm.402-.864v-1.012h-.007l-.717 1.012z"/><path d="m39.83 47.751c.624 0 .927.591.927 1.219 0 .73-.336 1.41-1.163 1.41-.354 0-.599-.181-.599-.438 0-.175.123-.301.299-.301.137 0 .27.118.27.251 0 .193-.107.26-.27.26v.007c.056.037.163.074.277.074.429 0 .565-.288.565-.668v-.344h-.007c-.096.125-.266.199-.428.199-.436 0-.739-.347-.739-.768 0-.506.344-.901.868-.901m-.015 1.499c.192 0 .321-.218.321-.546 0-.62-.081-.805-.291-.805-.211 0-.262.222-.262.639 0 .557.088.712.232.712z"/><path d="m48.025 35.276c-3.605 0-7.213 0-10.818 0-.016 0-.033 0-.049 0v10.672c-.02.509.158.737.95.73.828-.007 2.267 0 3.094 0 .218 0 .796.007.926.049s.302.288.39.779l.064.042c0-.015.064-.021.064-.038.063-.508.224-.729.311-.783.146-.093.222-.042 1.218-.049 1.039-.007 2.989.001 3.119 0 .479-.006.745-.26.731-.73-.009-.302 0-.633 0-.926 0-.749 0-7.247 0-9.746m-.536 10.623c-.021.14-.059.24-.244.243-1.38 0-2.825-.003-4.206-.003-.317.036-.472.295-.472.295 0-.015-.213-.295-.581-.295l-.735.003c-.761 0-3.314 0-3.314 0-.266-.015-.226-.243-.243-.243 0-3.36 0-6.727 0-10.088h9.795z"/><path d="m41.286 43.502c.279.025.882.354 1.117.635.19.229.203.152.203.152s.025.05.177-.152c.22-.293.838-.609 1.117-.635.279-.025.939.076 1.447.203.495.124 1.041.152 1.041.152v-5.913c-.584.304-1.726-.56-2.462-.711-.737-.152-1.32.457-1.32.457h-.026s-.583-.609-1.319-.457c-.736.151-1.879 1.015-2.462.711v5.913s.545-.028 1.04-.152c.508-.127 1.168-.228 1.447-.203"/><path d="m36.38 35.276c-3.604 0-7.212 0-10.818 0-.016 0-.032 0-.049 0v10.672c-.019.509.158.737.95.73.828-.007 2.268 0 3.095 0 .218 0 .796.007.926.049.129.042.301.288.39.779l.064.042c0-.015.063-.021.063-.038.064-.508.224-.729.311-.783.146-.093.222-.042 1.218-.049 1.039-.007 2.989.001 3.119 0 .479-.006.746-.26.731-.73-.009-.302 0-.633 0-.926 0-.749 0-7.247 0-9.746m-.536 10.623c-.021.14-.059.24-.243.243-1.381 0-2.825-.003-4.206-.003-.318.036-.473.295-.473.295 0-.015-.213-.295-.581-.295l-.734.003c-.762 0-3.314 0-3.314 0-.266-.015-.227-.243-.244-.243 0-.054 0-.107 0-.161 0-3.308 0-6.619 0-9.927h9.691.104z"/><path d="m33.989 42.36-.736.697-.182-.164-.254.255.157.163-.698.774s.462.569.952.71c.571.165 1.218.038 1.383-.139.165-.179.191-.876.089-1.309-.101-.429-.711-.987-.711-.987m-.381 1.338-.528-.433.093-.094.023-.022c0 .004.026.035.065.084.084.103.233.279.345.411.082.098.144.17.144.17z"/><path d="m30.828 40.67c-.006-.003-3.914-3.878-3.914-3.878s-.215.232-.232.232l3.89 3.89-2.504 2.468s-.83-.689-1.343-1.552c-.011.001-.034.001-.049.001.312 1.309.964 1.874.971 1.886.029.059.007.226.009.292l.102.029s.045.092.048.098c.067 0 .233-.026.293 0 .012.006.583.655 1.9.926 0-.015 0-.038 0-.049-.878-.484-1.67-1.392-1.67-1.392l2.499-2.477 1.949 1.927.232-.232s-1.949-1.921-1.949-1.938l3.878-3.89-.212-.233s-3.881 3.892-3.898 3.892"/><path d="m45.479 30.22c-.003-.013-.011-.013 0 0"/><path d="m48.017 22.746c-3.604 0-7.212 0-10.818 0-.015 0-.032 0-.049 0v10.672c-.019.509.159.738.951.731.828-.009 2.267 0 3.094 0 .218 0 .796.007.926.048.13.042.301.289.39.779l.064.042c0-.016.063-.021.063-.037.064-.509.224-.729.311-.784.146-.092.222-.041 1.219-.048 1.038-.009 2.988.001 3.118 0 .479-.007.746-.261.731-.731-.009-.303 0-.634 0-.926 0-.75 0-7.247 0-9.746m-.536 10.623c-.02.14-.058.241-.243.243-1.38 0-2.825-.002-4.206-.002-.318.036-.473.295-.473.295 0-.016-.212-.295-.581-.295l-.734.002c-.762 0-3.314 0-3.314 0-.266-.016-.227-.243-.244-.243 0-3.361 0-6.727 0-10.087h9.795z"/><path d="m38.004 27.373s.083.187.185.2c.074.009.545.004.393.038-.073.016-.184.08-.225.11-.097.071.067.164.067.164s.093.063.429.116c.12.018.476-.034.595.068s.204.102.238.322.153.476.17.561-.357.782-.425.986c-.068.203-.595.441-.917.51-.323.066-.221.355-.221.355s1.206 0 1.512 0 .374-.221.374-.221c.408-.152.688-.593.688-.593s.305.016.338.084c.136.271.127.303-.219.439-.27.106-.094.358-.094.358s1.53 0 1.615 0c.084 0 .255-.136.119-.322-.136-.188-.084-.441-.084-.441.561.033 1.472-.085 1.472-.085.17.237-.488.491-.76.594-.272.102-.102.271-.102.271s1.241-.017 1.496-.017.255 0 .323-.153c.067-.152.101-.119.356-.305.148-.109.158-.172.152-.196-.005-.006-.006-.009-.005-.009-.001 0 0 .003.005.009.002.003.004.005.007.008.23.23.181.257-.006.357-.187.102-.17.289-.17.289s1.411.034 1.598.017c.186-.017.271-.237.271-.237.116-.125-.101-.443-.254-.713-.117-.207-.165-.389-.187-.426-.051-.085-.282-.331-.153-.441.119-.103.194-.234.238-.289 0 0 .237-.373.186-.985-.024-.29-.475-.68-.696-.799s-1.026-.427-1.808-.223c-.782.202-1.998.035-2.304-.101s-.646-.322-.969-.339-.442.017-.747-.119c-.311-.138-.578-.152-.663-.204-.085-.051-.323-.255-.442-.255s0 .188-.017.255c-.017.068-.204.272-.39.307-.188.032-.374.305-.408.373-.034.067-.102.187-.255.271s-.391.221-.391.221c-.068.156.085.19.085.19"/><path d="m36.386 22.752c-3.604 0-7.212 0-10.818 0-.016 0-.032 0-.049 0v10.672c-.019.51.158.738.95.731.829-.008 2.268 0 3.095 0 .218 0 .796.007.926.049.129.042.301.288.39.779l.064.042c0-.016.063-.021.063-.038.064-.509.224-.729.311-.783.146-.093.222-.042 1.219-.049 1.038-.007 2.988.002 3.118 0 .479-.006.745-.261.731-.731-.009-.303 0-.633 0-.926 0-.749 0-7.247 0-9.746m-.533 10.601c-.02.141-.058.241-.243.244-1.38 0-2.825-.003-4.206-.003-.318.036-.473.295-.473.295 0-.015-.212-.295-.581-.295l-.734.003c-.761 0-3.314 0-3.314 0-.266-.015-.227-.244-.244-.244 0-3.36 0-6.726 0-10.087h9.795z"/><path d="m28.208 28.135c-.237.253-.52.284-.52.284s.013.24.742.408c-.152.253-.42.419-.42.419s.074.222.813.192c-.088.351-.294.498-.294.498s.167.244.831-.011c.014.362-.149.557-.149.557s.205.165.795-.224c.086.363-.003.578-.003.578s.244.117.713-.425c.208.258.154.57.154.57s.246.034.571-.604c.281.221.286.503.286.503s.304-.035.406-.725c.333.149.42.429.42.429s.241-.108.191-.822c.381.046.526.305.526.305s.187-.136-.038-.843c.437-.059.583.179.583.179s.19-.433-.25-.823c.351-.14.606.005.606.005s.079-.432-.452-.715c.313-.222.588-.153.588-.153s-.057-.421-.623-.573c.287-.318.522-.292.522-.292s-.086-.325-.744-.398c.164-.395.449-.437.449-.437s-.205-.354-.841-.175c.054-.381.313-.524.313-.524s-.285-.307-.851.035c.008-.412.179-.599.179-.599s-.428-.244-.825.268c-.112-.366.006-.605.006-.605s-.471-.154-.716.451c-.165-.353-.143-.605-.143-.605-.465.066-.584.645-.582.641-.258-.282-.291-.549-.291-.549s-.397.09-.401.77c-.288-.155-.426-.447-.426-.447s-.222.083-.185.84c-.309-.057-.532-.32-.532-.32s-.161.128.044.858c-.36-.004-.59-.178-.59-.178s-.163.188.257.824c-.328.08-.603-.023-.603-.023s-.094.175.449.732c-.296.143-.586.127-.586.127s-.042.226.621.597"/><path d="m28.815 32.025c.297 0 .542-.247.542-.247s.24.261.537.261.537-.261.537-.261.24.257.537.257.543-.258.543-.258.229.254.526.254.538-.262.538-.262.244.274.541.274.538-.26.538-.26l-.01-.355s-.241.317-.537.317c-.297 0-.542-.331-.542-.331s-.241.317-.537.317c-.297 0-.527-.311-.527-.311s-.246.315-.543.315-.536-.314-.536-.314-.241.317-.538.317c-.296 0-.537-.317-.537-.317s-.245.304-.542.304c-.296 0-.532-.307-.532-.307l.009.354c0 .002.236.253.533.253"/><path d="m33.111 32.308c-.297 0-.541-.331-.541-.331s-.241.317-.538.317-.526-.31-.526-.31-.247.314-.543.314c-.297 0-.537-.313-.537-.313s-.24.316-.537.316-.538-.316-.538-.316-.244.304-.541.304-.533-.307-.533-.307l.01.354s.236.25.532.25c.297 0 .542-.247.542-.247s.241.26.537.26c.297 0 .538-.26.538-.26s.239.257.536.257.543-.258.543-.258.23.253.527.253.537-.26.537-.26.245.274.541.274c.297 0 .538-.262.538-.262l-.009-.354c0 .002-.241.319-.538.319"/><path d="m16.82 42.24.094.201c-.589.596-.828 1.052-.554 1.634.293.622.993.624 1.976.161 1.023-.482 1.395-1.074 1.073-1.756-.312-.663-.913-.846-1.689-.529l-.104-.221c.878-.413 1.644-.167 2.076.751.558 1.184.042 2.224-.921 2.678-.963.453-2.169.027-2.616-.92-.177-.376-.188-.765-.167-1.123l-.298-.1-.094-.199z"/><path d="m19.107 41.567-.215.057c-.181-.382-.376-.468-.871-.537l-3.173-.432-.075-.284 2.814-2.216c.227-.182.277-.32.224-.604l.214-.057.514 1.935-.214.058-.057-.214c-.074-.28-.15-.306-.262-.275-.07.018-.133.063-.199.115l-.547.427.313 1.179.469.06c.077.008.205.015.355-.025s.221-.162.165-.371l-.069-.263.214-.057zm-3.096-1.048 1.252.155-.25-.943z"/><path d="m18.144 37.94-.221.019c-.035-.409-.134-.534-.41-.511l-2.631.222c-.276.023-.354.163-.319.572l-.221.019-.17-2.011.221-.019c.035.408.134.533.411.51l2.619-.222c.265-.021.334-.128.311-.403-.047-.559-.659-.946-1.301-1.037l-.02-.238 1.462-.09z"/><path d="m17.912 34.84-.222-.01c.019-.41-.063-.547-.34-.561l-2.638-.118c-.277-.013-.372.116-.39.526l-.222-.01.092-2.016.221.01c-.018.41.064.547.341.559l2.638.12c.277.012.371-.117.39-.526l.221.01z"/><path d="m17.924 33.047-.218-.04c.074-.404.011-.551-.262-.601l-2.597-.477c-.272-.05-.384.065-.458.47l-.218-.04.619-3.377 1.348.214-.043.233c-.749.061-1.207.434-1.324 1.071-.062.338-.001.468.266.517l1.058.194c.096-.523.01-.726-.476-.967l.04-.218 1.516.277-.04.219c-.539.053-.693.211-.789.734l1.266.232c.273.05.384-.065.47-.534l.218.04z"/><path d="m15.483 26.766c.366-.981 1.532-1.506 2.53-1.134.998.373 1.535 1.532 1.169 2.515-.366.981-1.533 1.506-2.53 1.134-.998-.374-1.536-1.533-1.169-2.515m3.46 1.291c.227-.607-.297-1.075-1.295-1.447-.997-.372-1.7-.362-1.926.246-.227.607.297 1.074 1.294 1.447.998.372 1.7.362 1.927-.246z"/><path d="m20.871 22.964c.47.284.662.665.361 1.163-.293.485-.664.521-1.244.215-.599-.315-.767-.392-1.148.078l.997.603c.271.162.417.167.655-.228l.19.115-1.014 1.681-.19-.115c.212-.351.205-.511-.033-.653l-2.26-1.364c-.238-.144-.382-.075-.594.276l-.19-.115 1.003-1.661c.487-.808 1.056-1.021 1.607-.689.622.375.406 1.088.095 1.625l.009.007c.426-.534.814-.481 1.208-.393.549.131.619.134.688.021.071-.119-.101-.263-.254-.374zm-2.202 1.353c.289-.532.4-.899-.146-1.229-.394-.238-.781-.199-.978.128-.101.167-.12.35.098.481z"/><path d="m18.536 21.121.903-1.008 3.18.34-.004.004.008-.009-1.455-1.302c-.206-.186-.361-.146-.702.152l-.165-.148.936-1.045.165.147c-.21.318-.233.476-.026.662l2.363 2.116-.348.388-3.603-.383-.015.017 1.752 1.569c.207.185.361.145.705-.24l.166.149-1.003 1.119-.165-.148c.273-.306.296-.464.09-.649l-1.967-1.761c-.206-.185-.361-.145-.65.177z"/><path d="m23.968 20.861-.142-.171c.316-.263.362-.415.185-.629l-1.685-2.031c-.177-.214-.336-.197-.652.064l-.142-.171 1.554-1.288.142.17c-.316.263-.362.415-.185.629l1.685 2.032c.177.213.336.197.652-.064l.142.17z"/><path d="m25.111 19.772-.116-.189c.313-.284.339-.496.264-.989l-.5-3.163.25-.153 2.932 2.057c.239.166.386.172.643.04l.117.189-1.705 1.049-.117-.189.189-.116c.246-.15.249-.23.188-.33-.038-.061-.099-.107-.168-.156l-.566-.401-1.039.639.078.468c.014.074.045.199.126.332.082.132.219.165.403.052l.232-.144.116.189zm.113-3.267.212 1.244.831-.512z"/><path d="m30.115 15.481.236-.063c.299.545.83 1.099 1.511.919.37-.098.641-.353.522-.804-.206-.777-2.21.04-2.535-1.188-.204-.771.253-1.363.928-1.543.585-.154.853.079.997.04.108-.027.118-.163.152-.274l.225-.06.338 1.275-.215.057c-.31-.543-.788-.961-1.351-.812-.338.089-.572.352-.479.706.222.836 2.22-.136 2.587 1.254.212.799-.401 1.409-.996 1.565-.66.176-.985-.037-1.157.009-.107.027-.15.194-.174.274l-.214.058z"/><path d="m36.186 12.015.16 1.345-.254.025c-.215-.63-.581-1.045-1.193-.981l.303 2.957c.028.275.17.351.644.302l.023.221-2.152.221-.023-.221c.486-.05.609-.151.581-.428l-.303-2.957c-.612.063-.886.543-.969 1.203l-.254.026-.116-1.349z"/><path d="m35.619 15.811.011-.222c.419-.056.561-.215.779-.665l1.381-2.889.293.015 1.249 3.357c.103.271.221.36.508.397l-.012.223-1.999-.104.011-.221.221.011c.289.015.336-.049.342-.166.004-.072-.02-.145-.049-.224l-.239-.651-1.218-.063-.2.429c-.031.07-.077.189-.084.345-.009.155.086.26.302.271l.271.014-.011.222zm1.945-2.627-.531 1.146.975.05z"/><path d="m43.137 12.923-.255 1.329-.25-.052c-.014-.666-.237-1.172-.839-1.298l-.609 2.909c-.057.271.056.387.522.483l-.045.217-2.117-.442.045-.218c.478.101.626.041.683-.23l.609-2.909c-.603-.126-1.009.248-1.289.853l-.25-.053.299-1.319z"/><path d="m46.009 15.501-.222-.088c.087-.747-.19-1.269-.794-1.506-.319-.127-.458-.092-.558.16l-.396 1.001c.495.195.71.149 1.041-.28l.206.082-.567 1.433-.206-.081c.053-.541-.073-.721-.568-.917l-.465 1.177c-.1.253-.022.372.298.499.691.273 1.294-.002 1.724-.606l.222.088-.565 1.339-3.275-1.295.082-.207c.381.151.538.118.64-.14l.971-2.455c.102-.258.01-.389-.371-.54l.082-.206 3.192 1.262z"/><path d="m50.822 16.995-.138.174c-.339-.27-.498-.284-.671-.067l-1.424 1.787c-.318.399-.132.859.15 1.084.486.388.933.333 1.334-.171l1.258-1.578c.174-.217.125-.368-.201-.699l.139-.174 1.097.875-.139.174c-.329-.192-.488-.205-.661.012l-1.231 1.543c-.546.686-1.209.654-1.928.08-.482-.384-.963-1.079-.431-1.747l1.369-1.717c.173-.218.124-.369-.192-.622l.138-.173z"/><path d="m52.424 18.274.892 1.018-.721 3.116-.004-.004.007.008 1.469-1.286c.208-.183.188-.341-.067-.716l.167-.146.925 1.056-.167.146c-.291-.248-.445-.289-.653-.105l-2.387 2.09-.343-.394.815-3.529-.015-.017-1.768 1.549c-.209.184-.188.342.152.729l-.167.146-.991-1.13.167-.146c.271.308.425.35.634.167l1.985-1.739c.209-.183.188-.341-.097-.667z"/><path d="m51.965 23.614.186-.121c.224.344.371.407.603.256l2.213-1.439c.233-.15.235-.311.011-.654l.186-.121 1.1 1.691-.186.121c-.223-.344-.37-.406-.603-.256l-2.213 1.439c-.232.15-.234.311-.01.654l-.186.121z"/><path d="m56.223 23.059.836 1.69-.199.099c-.182-.367-.281-.418-.42-.35-.05.025-.149.099-1.744 1.667l.005.01c2.102-.217 2.226-.228 2.345-.287.209-.104.192-.274.064-.532l.199-.1.553 1.119-.198.098c-.136-.198-.267-.313-.55-.284l-3.419.365-.204-.412 2.424-2.354c.246-.24.235-.376.109-.63z"/><path d="m57.5 29.856-.071-.229c.636-.401.868-.944.674-1.563-.102-.328-.216-.414-.476-.333l-1.027.32c.159.508.33.647.872.634l.066.213-1.472.459-.066-.212c.453-.299.515-.51.357-1.018l-1.207.376c-.26.081-.305.217-.202.545.221.71.813 1.007 1.555.962l.071.229-1.397.4-1.049-3.361.212-.066c.122.392.246.492.511.409l2.52-.785c.265-.083.31-.236.188-.628l.212-.066 1.021 3.277z"/><path d="m56.47 34.305c-.545.062-.929-.124-.995-.702-.064-.563.209-.816.855-.929.667-.115.847-.158.862-.762l-1.157.131c-.315.036-.433.122-.381.579l-.22.025-.223-1.95.221-.025c.046.407.15.53.425.498l2.623-.298c.276-.032.349-.174.302-.581l.221-.026.219 1.93c.107.937-.214 1.453-.853 1.525-.722.082-.986-.612-1.067-1.229l-.011.002c-.012.682-.352.877-.718 1.047-.515.232-.572.271-.557.404.016.138.24.146.429.141zm.92-2.416c.096.598.232.956.865.885.458-.053.74-.319.697-.699-.022-.193-.118-.35-.372-.32z"/><path d="m57.053 34.126-.011.244c-.61.123-1.297.465-1.328 1.168-.017.383.147.717.612.737.803.035.62-2.12 1.889-2.065.798.035 1.226.648 1.196 1.346-.027.604-.33.791-.336.941-.005.11.121.16.218.225l-.011.233-1.318-.058.01-.222c.611-.135 1.152-.466 1.178-1.048.015-.349-.166-.651-.531-.667-.865-.038-.534 2.158-1.969 2.095-.825-.036-1.225-.803-1.198-1.418.03-.682.33-.929.338-1.106.005-.111-.141-.2-.211-.248l.009-.222z"/><path d="m55.456 36.782.219.036c-.067.404-.001.55.273.596l2.604.429c.274.045.383-.071.45-.476l.219.035-.329 1.991-.219-.035c.067-.405.001-.552-.272-.596l-2.605-.43c-.274-.045-.383.072-.45.477l-.218-.035z"/><path d="m57.844 43.043-1.3-.376.075-.244c.664.048 1.188-.128 1.369-.717l-2.842-.872c-.266-.081-.389.02-.529.476l-.212-.064.634-2.068.212.065c-.143.467-.097.62.168.702l2.842.872c.18-.59-.155-1.028-.731-1.362l.075-.243 1.287.418z"/><path d="m57.836 43.055-.809 1.654-.199-.098c.114-.234.15-.408.035-.463-.055-.027-.151-.031-.315-.025l-1.244.033.697.909c.09.118.163.196.232.231.13.063.29-.063.419-.326l.2.098-.615 1.255-.199-.098c.136-.402.077-.523-.073-.721l-1.109-1.432-.896-.438c-.25-.122-.388-.042-.602.397l-.199-.099.938-1.918.199.099c-.217.442-.196.601.053.723l.917.449 1.542-.023c.437-.009.68-.014.829-.305z"/><path d="m20.395 49.847.151-.162c.301.278.459.305.647.102l1.796-1.936c.189-.202.152-.358-.149-.638l.151-.163 1.479 1.374-.151.163c-.3-.28-.458-.305-.647-.102l-1.788 1.926c-.181.196-.161.321.042.509.411.381 1.124.257 1.66-.108l.175.162-1.021 1.051z"/><path d="m26.812 50.117c.881.567 1.144 1.818.567 2.714-.576.895-1.824 1.173-2.705.604-.881-.566-1.144-1.817-.568-2.713.577-.895 1.825-1.173 2.706-.605m-2 3.105c.545.352 1.114-.06 1.691-.956.577-.895.716-1.583.171-1.935-.545-.351-1.115.061-1.691.956-.577.896-.717 1.584-.171 1.935z"/><path d="m27.995 51.021 1.255.505.766 3.104-.005-.002.01.004.729-1.811c.103-.257.013-.39-.383-.609l.083-.205 1.301.523-.082.206c-.371-.089-.528-.058-.631.201l-1.184 2.942-.483-.195-.869-3.517-.021-.008-.877 2.181c-.104.258-.013.391.465.582l-.083.206-1.394-.561.083-.206c.381.152.537.121.641-.138l.985-2.448c.103-.258.013-.39-.389-.552z"/><path d="m32.733 54.681 2.091.406-.049.25c-.503-.086-.56-.023-.623.303l-.223 1.148-.207-.04-.196-.298c-.367.144-.742.184-1.134.107-.915-.177-1.634-1.187-1.44-2.188.222-1.145 1.277-1.866 2.306-1.666.528.102.782.451.902.474.076.016.164-.087.223-.131l.218.042-.251 1.296-.218-.043c-.067-.589-.199-1.247-.874-1.378-.599-.116-1.051.293-1.285 1.502-.222 1.144.053 1.761.511 1.851.501.097.671-.197.759-.655.098-.501-.057-.632-.559-.73z"/><path d="m36.415 53.735c-.015-.277-.152-.358-.54-.339l-.011-.222 1.982-.102c.837-.044 1.409.271 1.44.875.027.53-.359.796-.844.871l.001.011c.552.044 1.107.26 1.14.896.025.477-.277 1.093-1.351 1.147l-2.171.113-.012-.223c.388-.02.516-.115.502-.393zm.942 1.051.183-.01c.565-.029.819-.275.796-.729-.025-.476-.288-.729-.681-.709-.222.012-.366.13-.352.396zm.076 1.462c.014.266.132.405.42.389.548-.027.806-.313.782-.772-.023-.449-.218-.877-.871-.845l-.393.021z"/><path d="m42.95 53.55-.232.057c-.359-.661-.885-.928-1.516-.775-.334.08-.428.188-.364.452l.252 1.046c.517-.125.667-.286.69-.828l.216-.052.361 1.499-.216.051c-.267-.472-.474-.547-.991-.423l.296 1.229c.063.265.196.317.53.237.723-.174 1.059-.746 1.062-1.488l.232-.055.308 1.42-3.424.825-.052-.216c.399-.097.508-.213.443-.483l-.618-2.565c-.065-.271-.215-.325-.614-.229l-.052-.215 3.337-.804z"/><path d="m43.734 55.913-.089-.204c.35-.237.406-.443.4-.942l-.053-3.201.27-.118 2.615 2.447c.213.198.359.226.632.131l.088.203-1.835.801-.089-.204.204-.089c.264-.115.278-.193.232-.301-.029-.065-.083-.12-.145-.179l-.504-.476-1.118.486.012.474c.003.077.017.204.079.346.062.144.193.195.391.108l.25-.108.088.203zm.569-3.219.035 1.261.895-.39z"/><path d="m48.953 50.398-.186.119c-.671-.503-1.155-.677-1.694-.326-.577.375-.484 1.067.108 1.979.617.948 1.253 1.236 1.886.825.614-.399.713-1.02.294-1.746l.205-.132c.529.813.389 1.604-.462 2.158-1.098.713-2.198.344-2.778-.55-.58-.893-.323-2.145.556-2.717.35-.226.731-.289 1.09-.316l.058-.31.186-.121z"/><path d="m51.366 48.544-.771-.782c-.195-.196-.352-.167-.605.083l-.156-.158 1.386-1.366.156.157c-.28.276-.313.434-.118.631l1.854 1.879c.195.197.352.167.632-.109l.156.158-1.386 1.367-.156-.158c.253-.249.285-.406.091-.604l-.904-.916-.884.872.903.916c.195.197.352.167.605-.082l.155.158-1.385 1.367-.156-.158c.28-.275.313-.433.118-.63l-1.854-1.88c-.195-.197-.352-.167-.632.11l-.156-.158 1.386-1.367.156.157c-.253.25-.285.407-.091.604l.771.782z"/></g></svg>